<svg version="1.1" viewBox="0.0 0.0 960.0 460.87664041994753" fill="none" stroke="none" stroke-linecap="square" stroke-miterlimit="10" xmlns:xlink="http://www.w3.org/1999/xlink" xmlns="http://www.w3.org/2000/svg"><clipPath id="p.0"><path d="m0 0l960.0 0l0 460.87665l-960.0 0l0 -460.87665z" clip-rule="nonzero"/></clipPath><g clip-path="url(#p.0)"><path fill="#1d1d1d" d="m0 0l960.0 0l0 460.87665l-960.0 0z" fill-rule="evenodd"/><path fill="#000000" fill-opacity="0.0" d="m19.12336 76.20735l917.92126 0l0 295.71655l-917.92126 0z" fill-rule="evenodd"/><path fill="#ff7860" d="m339.30798 175.61298l-12.921875 0l0 22.234375l-7.28125 0l0 -54.96875l18.203125 0q9.28125 0 14.28125 4.234375q5.015625 4.21875 5.015625 12.296875q0 5.140625 -2.78125 8.953125q-2.78125 3.8125 -7.71875 5.703125l12.90625 23.328125l0 0.453125l-7.78125 0l-11.921875 -22.234375zm-12.921875 -5.9375l11.140625 0q5.40625 0 8.59375 -2.78125q3.1875 -2.796875 3.1875 -7.484375q0 -5.09375 -3.046875 -7.8125q-3.03125 -2.71875 -8.765625 -2.765625l-11.109375 0l0 20.84375zm56.222046 28.921875q-8.296875 0 -13.515625 -5.453125q-5.203125 -5.453125 -5.203125 -14.59375l0 -1.28125q0 -6.078125 2.3125 -10.84375q2.328125 -4.78125 6.5 -7.484375q4.171875 -2.703125 9.046875 -2.703125q7.96875 0 12.375 5.25q4.421875 5.25 4.421875 15.03125l0 2.90625l-27.671875 0q0.140625 6.03125 3.515625 9.75q3.390625 3.71875 8.59375 3.71875q3.703125 0 6.265625 -1.5q2.578125 -1.515625 4.5 -4.0l4.265625 3.3125q-5.125 7.890625 -15.40625 7.890625zm-0.859375 -36.625q-4.234375 0 -7.109375 3.078125q-2.859375 3.078125 -3.546875 8.625l20.46875 0l0 -0.515625q-0.296875 -5.328125 -2.875 -8.25q-2.5625 -2.9375 -6.9375 -2.9375zm23.186066 15.109375q0 -9.40625 4.453125 -15.125q4.453125 -5.71875 11.65625 -5.71875q7.1875 0 11.375 4.90625l0 -21.296875l6.984375 0l0 58.0l-6.421875 0l-0.34375 -4.375q-4.1875 5.125 -11.65625 5.125q-7.109375 0 -11.578125 -5.8125q-4.46875 -5.8125 -4.46875 -15.171875l0 -0.53125zm6.984375 0.796875q0 6.9375 2.859375 10.875q2.875 3.921875 7.9375 3.921875q6.640625 0 9.703125 -5.96875l0 -18.765625q-3.140625 -5.78125 -9.625 -5.78125q-5.140625 0 -8.015625 3.96875q-2.859375 3.96875 -2.859375 11.75zm93.6286 10.34375l7.8594055 -31.234375l6.984375 0l-11.8906555 40.859375l-5.671875 0l-9.921875 -30.96875l-9.671875 30.96875l-5.65625 0l-11.859375 -40.859375l6.953125 0l8.03125 30.59375l9.515625 -30.59375l5.625 0l9.703125 31.234375zm29.53122 9.625l-6.984314 0l0 -40.859375l6.984314 0l0 40.859375zm-7.546814 -51.6875q0 -1.703125 1.03125 -2.875q1.046875 -1.171875 3.078064 -1.171875q2.046875 0 3.09375 1.171875q1.0625 1.171875 1.0625 2.875q0 1.703125 -1.0625 2.84375q-1.046875 1.125 -3.09375 1.125q-2.031189 0 -3.078064 -1.125q-1.03125 -1.140625 -1.03125 -2.84375zm25.328125 10.828125l0.234375 5.140625q4.671875 -5.890625 12.234375 -5.890625q12.953125 0 13.0625 14.609375l0 27.0l-6.984375 0l0 -27.03125q-0.046875 -4.421875 -2.03125 -6.53125q-1.96875 -2.125 -6.171875 -2.125q-3.390625 0 -5.96875 1.8125q-2.5625 1.8125 -4.0 4.765625l0 29.109375l-6.984375 0l0 -40.859375l6.609375 0zm59.853943 30.015625q0 -2.828125 -2.140625 -4.390625q-2.125 -1.5625 -7.4375 -2.6875q-5.296875 -1.140625 -8.421875 -2.71875q-3.109375 -1.59375 -4.609375 -3.78125q-1.484375 -2.203125 -1.484375 -5.21875q0 -5.015625 4.25 -8.484375q4.25 -3.484375 10.859375 -3.484375q6.9375 0 11.265625 3.59375q4.328125 3.578125 4.328125 9.171875l-7.03125 0q0 -2.875 -2.4375 -4.953125q-2.4375 -2.078125 -6.125 -2.078125q-3.8125 0 -5.96875 1.671875q-2.15625 1.65625 -2.15625 4.34375q0 2.515625 2.0 3.8125q2.0 1.28125 7.234375 2.453125q5.234375 1.171875 8.46875 2.796875q3.25 1.609375 4.8125 3.90625q1.578125 2.28125 1.578125 5.5625q0 5.46875 -4.390625 8.78125q-4.375 3.296875 -11.359375 3.296875q-4.90625 0 -8.6875 -1.734375q-3.765625 -1.734375 -5.90625 -4.84375q-2.125 -3.125 -2.125 -6.75l6.984375 0q0.1875 3.515625 2.8125 5.578125q2.625 2.046875 6.921875 2.046875q3.96875 0 6.359375 -1.59375q2.40625 -1.609375 2.40625 -4.296875zm23.903564 -4.671875l-6.3125 0l-0.484375 -39.453125l7.3125 0l-0.515625 39.453125zm-7.0625 12.0q0 -1.6875 1.03125 -2.84375q1.046875 -1.15625 3.078125 -1.15625q2.046875 0 3.09375 1.15625q1.0625 1.15625 1.0625 2.859375q0 1.6875 -1.0625 2.8125q-1.046875 1.109375 -3.09375 1.109375q-2.03125 0 -3.078125 -1.109375q-1.03125 -1.125 -1.03125 -2.828125z" fill-rule="nonzero"/><path fill="#ffffff" d="m58.569588 269.1317l0 21.515625l-7.25 0l0 -54.968735l20.28125 0q9.03125 0 14.140625 4.609375q5.109375 4.59375 5.109375 12.1875q0 7.9999847 -5.0 12.32811q-5.0 4.328125 -14.328125 4.328125l-12.953125 0zm0 -5.9375l13.03125 0q5.8125 0 8.90625 -2.734375q3.109375 -2.734375 3.109375 -7.9062347q0 -4.90625 -3.109375 -7.84375q-3.09375 -2.953125 -8.484375 -3.078125l-13.453125 0l0 21.562485zm60.189423 -7.140625q-1.578125 -0.24998474 -3.4375 -0.24998474q-6.875 0 -9.328125 5.8437347l0 29.0l-6.984375 0l0 -40.85936l6.796875 0l0.125 4.71875q3.421875 -5.46875 9.734375 -5.46875q2.03125 0 3.09375 0.53125l0 6.4843597zm22.651878 35.34375q-8.296875 0 -13.515617 -5.453125q-5.203125 -5.453125 -5.203125 -14.59375l0 -1.28125q0 -6.078125 2.3125 -10.84375q2.328125 -4.7812347 6.4999924 -7.4843597q4.171875 -2.703125 9.046875 -2.703125q7.96875 0 12.375 5.25q4.421875 5.2499847 4.421875 15.031235l0 2.90625l-27.671875 0q0.140625 6.03125 3.515625 9.75q3.390625 3.71875 8.59375 3.71875q3.703125 0 6.265625 -1.5q2.578125 -1.515625 4.5 -4.0l4.265625 3.3125q-5.125 7.890625 -15.40625 7.890625zm-0.859375 -36.624985q-4.234375 0 -7.109375 3.0781097q-2.859375 3.078125 -3.546875 8.625l20.46875 0l0 -0.515625q-0.296875 -5.328125 -2.875 -8.25q-2.5625 -2.9374847 -6.9375 -2.9374847zm48.670425 25.031235q0 -2.828125 -2.140625 -4.390625q-2.125 -1.5625 -7.4375 -2.6875q-5.296875 -1.140625 -8.421875 -2.71875q-3.109375 -1.59375 -4.609375 -3.78125q-1.484375 -2.203125 -1.484375 -5.21875q0 -5.0156097 4.25 -8.48436q4.25 -3.484375 10.859375 -3.484375q6.9375 0 11.265625 3.59375q4.328125 3.5781097 4.328125 9.17186l-7.03125 0q0 -2.875 -2.4375 -4.953125q-2.4375 -2.0781097 -6.125 -2.0781097q-3.8125 0 -5.96875 1.6718597q-2.15625 1.65625 -2.15625 4.34375q0 2.515625 2.0 3.8125q2.0 1.28125 7.234375 2.453125q5.234375 1.171875 8.46875 2.796875q3.25 1.609375 4.8125 3.90625q1.578125 2.28125 1.578125 5.5625q0 5.46875 -4.390625 8.78125q-4.375 3.296875 -11.359375 3.296875q-4.90625 0 -8.6875 -1.734375q-3.765625 -1.734375 -5.90625 -4.84375q-2.125 -3.125 -2.125 -6.75l6.984375 0q0.1875 3.515625 2.8125 5.578125q2.625 2.046875 6.921875 2.046875q3.96875 0 6.359375 -1.59375q2.40625 -1.609375 2.40625 -4.296875zm39.872314 0q0 -2.828125 -2.140625 -4.390625q-2.125 -1.5625 -7.4375 -2.6875q-5.296875 -1.140625 -8.421875 -2.71875q-3.109375 -1.59375 -4.609375 -3.78125q-1.484375 -2.203125 -1.484375 -5.21875q0 -5.0156097 4.25 -8.48436q4.25 -3.484375 10.859375 -3.484375q6.9375 0 11.265625 3.59375q4.328125 3.5781097 4.328125 9.17186l-7.03125 0q0 -2.875 -2.4375 -4.953125q-2.4375 -2.0781097 -6.125 -2.0781097q-3.8125 0 -5.96875 1.6718597q-2.15625 1.65625 -2.15625 4.34375q0 2.515625 2.0 3.8125q2.0 1.28125 7.234375 2.453125q5.234375 1.171875 8.46875 2.796875q3.25 1.609375 4.8125 3.90625q1.578125 2.28125 1.578125 5.5625q0 5.46875 -4.390625 8.78125q-4.375 3.296875 -11.359375 3.296875q-4.90625 0 -8.6875 -1.734375q-3.765625 -1.734375 -5.90625 -4.84375q-2.125 -3.125 -2.125 -6.75l6.984375 0q0.1875 3.515625 2.8125 5.578125q2.625 2.046875 6.921875 2.046875q3.96875 0 6.359375 -1.59375q2.40625 -1.609375 2.40625 -4.296875zm59.01555 0q0 -2.828125 -2.140625 -4.390625q-2.125 -1.5625 -7.4375 -2.6875q-5.2968445 -1.140625 -8.4218445 -2.71875q-3.109375 -1.59375 -4.609375 -3.78125q-1.484375 -2.203125 -1.484375 -5.21875q0 -5.0156097 4.25 -8.48436q4.25 -3.484375 10.8593445 -3.484375q6.9375 0 11.265625 3.59375q4.328125 3.5781097 4.328125 9.17186l-7.03125 0q0 -2.875 -2.4375 -4.953125q-2.4375 -2.0781097 -6.125 -2.0781097q-3.8125 0 -5.9687195 1.6718597q-2.15625 1.65625 -2.15625 4.34375q0 2.515625 2.0 3.8125q2.0 1.28125 7.2343445 2.453125q5.234375 1.171875 8.46875 2.796875q3.25 1.609375 4.8125 3.90625q1.578125 2.28125 1.578125 5.5625q0 5.46875 -4.390625 8.78125q-4.375 3.296875 -11.359375 3.296875q-4.9062195 0 -8.6874695 -1.734375q-3.765625 -1.734375 -5.90625 -4.84375q-2.125 -3.125 -2.125 -6.75l6.984375 0q0.1875 3.515625 2.8125 5.578125q2.625 2.046875 6.9218445 2.046875q3.96875 0 6.359375 -1.59375q2.40625 -1.609375 2.40625 -4.296875zm50.591064 -9.125q0 9.328125 -4.265625 15.03125q-4.265625 5.6875 -11.5625 5.6875q-7.4375 0 -11.703125 -4.71875l0 19.671875l-6.984375 0l0 -56.562485l6.390625 0l0.328125 4.53125q4.28125 -5.28125 11.859375 -5.28125q7.359375 0 11.640625 5.546875q4.296875 5.5468597 4.296875 15.45311l0 0.640625zm-6.984375 -0.796875q0 -6.90625 -2.953125 -10.90625q-2.9375 -4.0156097 -8.078125 -4.0156097q-6.34375 0 -9.515625 5.6249847l0 19.53125q3.140625 5.578125 9.59375 5.578125q5.03125 0 7.984375 -3.96875q2.96875 -3.984375 2.96875 -11.84375zm41.086945 20.765625q-0.609375 -1.203125 -0.984375 -4.296875q-4.875 5.046875 -11.640625 5.046875q-6.03125 0 -9.90625 -3.40625q-3.875 -3.421875 -3.875 -8.671875q0 -6.375 4.84375 -9.90625q4.859375 -3.53125 13.65625 -3.53125l6.796875 0l0 -3.21875q0 -3.65625 -2.1875 -5.828125q-2.1875 -2.1718597 -6.453125 -2.1718597q-3.734375 0 -6.265625 1.8906097q-2.53125 1.890625 -2.53125 4.5625l-7.015625 0q0 -3.046875 2.15625 -5.8906097q2.171875 -2.859375 5.890625 -4.515625q3.734375 -1.671875 8.1875 -1.671875q7.0625 0 11.0625 3.53125q4.0 3.5312347 4.15625 9.718735l0 18.8125q0 5.625 1.421875 8.9375l0 0.609375l-7.3125 0zm-11.59375 -5.328125q3.28125 0 6.21875 -1.6875q2.953125 -1.703125 4.265625 -4.421875l0 -8.390625l-5.46875 0q-12.84375 0 -12.84375 7.515625q0 3.28125 2.1875 5.140625q2.203125 1.84375 5.640625 1.84375zm44.812286 0.375q3.734375 0 6.53125 -2.265625q2.796875 -2.265625 3.09375 -5.65625l6.609375 0q-0.1875 3.515625 -2.421875 6.6875q-2.21875 3.171875 -5.9375 5.0625q-3.71875 1.875 -7.875 1.875q-8.34375 0 -13.28125 -5.5625q-4.921875 -5.578125 -4.921875 -15.234375l0 -1.171875q0 -5.96875 2.1875 -10.609375q2.203125 -4.6406097 6.296875 -7.2031097q4.09375 -2.578125 9.6875 -2.578125q6.859375 0 11.40625 4.125q4.5625 4.1093597 4.859375 10.67186l-6.609375 0q-0.296875 -3.953125 -3.0 -6.5q-2.703125 -2.5624847 -6.65625 -2.5624847q-5.328125 0 -8.265625 3.8437347q-2.921875 3.828125 -2.921875 11.078125l0 1.3125q0 7.0625 2.90625 10.875q2.921875 3.8125 8.3125 3.8125zm41.03894 5.703125q-8.296875 0 -13.515625 -5.453125q-5.203125 -5.453125 -5.203125 -14.59375l0 -1.28125q0 -6.078125 2.3125 -10.84375q2.328125 -4.7812347 6.5 -7.4843597q4.171875 -2.703125 9.046875 -2.703125q7.96875 0 12.375 5.25q4.421875 5.2499847 4.421875 15.031235l0 2.90625l-27.671875 0q0.140625 6.03125 3.515625 9.75q3.390625 3.71875 8.59375 3.71875q3.703125 0 6.265625 -1.5q2.578125 -1.515625 4.5 -4.0l4.265625 3.3125q-5.125 7.890625 -15.40625 7.890625zm-0.859375 -36.624985q-4.234375 0 -7.109375 3.0781097q-2.859375 3.078125 -3.546875 8.625l20.46875 0l0 -0.515625q-0.296875 -5.328125 -2.875 -8.25q-2.5625 -2.9374847 -6.9375 -2.9374847zm59.467285 15.906235q0 9.359375 -4.3125 15.046875q-4.296875 5.671875 -11.546875 5.671875q-7.734375 0 -11.96875 -5.46875l-0.34375 4.71875l-6.421875 0l0 -57.999985l6.984375 0l0 21.640625q4.234375 -5.25 11.671875 -5.25q7.4375 0 11.6875 5.625q4.25 5.6249847 4.25 15.406235l0 0.609375zm-6.984375 -0.796875q0 -7.140625 -2.765625 -11.03125q-2.75 -3.8906097 -7.921875 -3.8906097q-6.90625 0 -9.9375 6.4218597l0 17.671875q3.21875 6.421875 10.015625 6.421875q5.015625 0 7.8125 -3.890625q2.796875 -3.890625 2.796875 -11.703125zm41.00879 20.765625q-0.609375 -1.203125 -0.984375 -4.296875q-4.875 5.046875 -11.640625 5.046875q-6.03125 0 -9.90625 -3.40625q-3.875 -3.421875 -3.875 -8.671875q0 -6.375 4.84375 -9.90625q4.859375 -3.53125 13.65625 -3.53125l6.796875 0l0 -3.21875q0 -3.65625 -2.1875 -5.828125q-2.1875 -2.1718597 -6.453125 -2.1718597q-3.734375 0 -6.265625 1.8906097q-2.53125 1.890625 -2.53125 4.5625l-7.015625 0q0 -3.046875 2.15625 -5.8906097q2.171875 -2.859375 5.890625 -4.515625q3.734375 -1.671875 8.1875 -1.671875q7.0625 0 11.0625 3.53125q4.0 3.5312347 4.15625 9.718735l0 18.8125q0 5.625 1.421875 8.9375l0 0.609375l-7.3125 0zm-11.59375 -5.328125q3.28125 0 6.21875 -1.6875q2.953125 -1.703125 4.265625 -4.421875l0 -8.390625l-5.46875 0q-12.84375 0 -12.84375 7.515625q0 3.28125 2.1875 5.140625q2.203125 1.84375 5.640625 1.84375zm48.17163 -29.265625q-1.578125 -0.24998474 -3.4375 -0.24998474q-6.875 0 -9.328125 5.8437347l0 29.0l-6.984375 0l0 -40.85936l6.796875 0l0.125 4.71875q3.421875 -5.46875 9.734375 -5.46875q2.03125 0 3.09375 0.53125l0 6.4843597zm35.043823 -16.156235l0 9.890625l7.625 0l0 5.40625l-7.625 0l0 25.32811q0 2.453125 1.015625 3.6875q1.015625 1.234375 3.46875 1.234375q1.21875 0 3.328125 -0.453125l0 5.65625q-2.75 0.75 -5.359375 0.75q-4.6875 0 -7.0625 -2.828125q-2.375 -2.828125 -2.375 -8.046875l0 -25.32811l-7.4375 0l0 -5.40625l7.4375 0l0 -9.890625l6.984375 0zm13.176697 29.95311q0 -6.015625 2.359375 -10.8125q2.359375 -4.7968597 6.5625 -7.3906097q4.21875 -2.609375 9.609375 -2.609375q8.34375 0 13.5 5.78125q5.15625 5.7656097 5.15625 15.35936l0 0.5q0 5.953125 -2.28125 10.703125q-2.28125 4.734375 -6.53125 7.375q-4.25 2.640625 -9.765625 2.640625q-8.296875 0 -13.453125 -5.765625q-5.15625 -5.78125 -5.15625 -15.296875l0 -0.484375zm7.015625 0.828125q0 6.796875 3.15625 10.90625q3.15625 4.109375 8.4375 4.109375q5.328125 0 8.453125 -4.171875q3.140625 -4.171875 3.140625 -11.671875q0 -6.734375 -3.1875 -10.90625q-3.1875 -4.1718597 -8.484375 -4.1718597q-5.171875 0 -8.34375 4.1249847q-3.171875 4.109375 -3.171875 11.78125zm77.82257 -14.625q-1.578125 -0.24998474 -3.4375 -0.24998474q-6.875 0 -9.328125 5.8437347l0 29.0l-6.984375 0l0 -40.85936l6.796875 0l0.125 4.71875q3.421875 -5.46875 9.734375 -5.46875q2.03125 0 3.09375 0.53125l0 6.4843597zm22.651855 35.34375q-8.296875 0 -13.515625 -5.453125q-5.203125 -5.453125 -5.203125 -14.59375l0 -1.28125q0 -6.078125 2.3125 -10.84375q2.328125 -4.7812347 6.5 -7.4843597q4.171875 -2.703125 9.046875 -2.703125q7.96875 0 12.375 5.25q4.421875 5.2499847 4.421875 15.031235l0 2.90625l-27.671875 0q0.140625 6.03125 3.515625 9.75q3.390625 3.71875 8.59375 3.71875q3.703125 0 6.265625 -1.5q2.578125 -1.515625 4.5 -4.0l4.265625 3.3125q-5.125 7.890625 -15.40625 7.890625zm-0.859375 -36.624985q-4.234375 0 -7.109375 3.0781097q-2.859375 3.078125 -3.546875 8.625l20.46875 0l0 -0.515625q-0.296875 -5.328125 -2.875 -8.25q-2.5625 -2.9374847 -6.9375 -2.9374847zm48.67041 25.031235q0 -2.828125 -2.140625 -4.390625q-2.125 -1.5625 -7.4375 -2.6875q-5.296875 -1.140625 -8.421875 -2.71875q-3.109375 -1.59375 -4.609375 -3.78125q-1.484375 -2.203125 -1.484375 -5.21875q0 -5.0156097 4.25 -8.48436q4.25 -3.484375 10.859375 -3.484375q6.9375 0 11.265625 3.59375q4.328125 3.5781097 4.328125 9.17186l-7.03125 0q0 -2.875 -2.4375 -4.953125q-2.4375 -2.0781097 -6.125 -2.0781097q-3.8125 0 -5.96875 1.6718597q-2.15625 1.65625 -2.15625 4.34375q0 2.515625 2.0 3.8125q2.0 1.28125 7.234375 2.453125q5.234375 1.171875 8.46875 2.796875q3.25 1.609375 4.8125 3.90625q1.578125 2.28125 1.578125 5.5625q0 5.46875 -4.390625 8.78125q-4.375 3.296875 -11.359375 3.296875q-4.90625 0 -8.6875 -1.734375q-3.765625 -1.734375 -5.90625 -4.84375q-2.125 -3.125 -2.125 -6.75l6.984375 0q0.1875 3.515625 2.8125 5.578125q2.625 2.046875 6.921875 2.046875q3.96875 0 6.359375 -1.59375q2.40625 -1.609375 2.40625 -4.296875zm25.559814 -39.906235l0 9.890625l7.625 0l0 5.40625l-7.625 0l0 25.32811q0 2.453125 1.015625 3.6875q1.015625 1.234375 3.46875 1.234375q1.21875 0 3.328125 -0.453125l0 5.65625q-2.75 0.75 -5.359375 0.75q-4.6875 0 -7.0625 -2.828125q-2.375 -2.828125 -2.375 -8.046875l0 -25.32811l-7.4375 0l0 -5.40625l7.4375 0l0 -9.890625l6.984375 0zm41.01001 50.749985q-0.609375 -1.203125 -0.984375 -4.296875q-4.875 5.046875 -11.640625 5.046875q-6.03125 0 -9.90625 -3.40625q-3.875 -3.421875 -3.875 -8.671875q0 -6.375 4.84375 -9.90625q4.859375 -3.53125 13.65625 -3.53125l6.796875 0l0 -3.21875q0 -3.65625 -2.1875 -5.828125q-2.1875 -2.1718597 -6.453125 -2.1718597q-3.734375 0 -6.265625 1.8906097q-2.53125 1.890625 -2.53125 4.5625l-7.015625 0q0 -3.046875 2.15625 -5.8906097q2.171875 -2.859375 5.890625 -4.515625q3.734375 -1.671875 8.1875 -1.671875q7.0625 0 11.0625 3.53125q4.0 3.5312347 4.15625 9.718735l0 18.8125q0 5.625 1.421875 8.9375l0 0.609375l-7.3125 0zm-11.59375 -5.328125q3.28125 0 6.21875 -1.6875q2.953125 -1.703125 4.265625 -4.421875l0 -8.390625l-5.46875 0q-12.84375 0 -12.84375 7.515625q0 3.28125 2.1875 5.140625q2.203125 1.84375 5.640625 1.84375zm48.17163 -29.265625q-1.578125 -0.24998474 -3.4375 -0.24998474q-6.875 0 -9.328125 5.8437347l0 29.0l-6.984375 0l0 -40.85936l6.796875 0l0.125 4.71875q3.421875 -5.46875 9.734375 -5.46875q2.03125 0 3.09375 0.53125l0 6.4843597zm17.788574 -16.156235l0 9.890625l7.625 0l0 5.40625l-7.625 0l0 25.32811q0 2.453125 1.015625 3.6875q1.015625 1.234375 3.46875 1.234375q1.21875 0 3.328125 -0.453125l0 5.65625q-2.75 0.75 -5.359375 0.75q-4.6875 0 -7.0625 -2.828125q-2.375 -2.828125 -2.375 -8.046875l0 -25.32811l-7.4375 0l0 -5.40625l7.4375 0l0 -9.890625l6.984375 0z" fill-rule="nonzero"/></g></svg>