<svg version="1.1" viewBox="0.0 0.0 960.0 460.87664041994753" fill="none" stroke="none" stroke-linecap="square" stroke-miterlimit="10" xmlns:xlink="http://www.w3.org/1999/xlink" xmlns="http://www.w3.org/2000/svg"><clipPath id="p.0"><path d="m0 0l960.0 0l0 460.87665l-960.0 0l0 -460.87665z" clip-rule="nonzero"/></clipPath><g clip-path="url(#p.0)"><path fill="#1d1d1d" d="m0 0l960.0 0l0 460.87665l-960.0 0z" fill-rule="evenodd"/><path fill="#000000" fill-opacity="0.0" d="m19.12336 28.20735l917.92126 0l0 400.75592l-917.92126 0z" fill-rule="evenodd"/><path fill="#ffffff" d="m288.2744 79.44735l-21.4375 0l0 -4.25l10.125 -10.796875q2.078125 -2.2656288 3.078125 -3.9687538q1.0 -1.703125 1.0 -3.21875q0 -2.09375 -1.0625 -3.28125q-1.046875 -1.1875 -3.0 -1.1875q-2.109375 0 -3.328125 1.453125q-1.203125 1.4375 -1.203125 3.8125l-6.234375 0q0 -2.859375 1.359375 -5.21875q1.375 -2.375 3.859375 -3.71875q2.5 -1.34375 5.65625 -1.34375q4.828125 0 7.5 2.328125q2.6875 2.3125 2.6875 6.546875q0 2.328125 -1.203125 4.734375q-1.203125 2.40625 -4.125 5.609379l-7.109375 7.5l13.4375 0l0 5.0zm16.134766 -10.890625l-12.09375 0l0 -5.015629l12.09375 0l0 5.015629zm11.839844 -0.125l0 11.015625l-6.4375 0l0 -31.281254l12.203125 0q3.515625 0 6.1875 1.296875q2.6875 1.28125 4.125 3.65625q1.4375 2.375 1.4375 5.40625q0 4.59375 -3.15625 7.250004q-3.140625 2.65625 -8.703125 2.65625l-5.65625 0zm0 -5.234379l5.765625 0q2.546875 0 3.890625 -1.203125q1.34375 -1.203125 1.34375 -3.4375q0 -2.296875 -1.359375 -3.703125q-1.34375 -1.421875 -3.734375 -1.46875l-5.90625 0l0 9.8125zm28.083984 16.250004l-6.234375 0l0 -33.000004l6.234375 0l0 33.000004zm18.58789 0q-0.4375 -0.84375 -0.625 -2.078125q-2.25 2.515625 -5.859375 2.515625q-3.421875 0 -5.671875 -1.984375q-2.234375 -1.984375 -2.234375 -4.984375q0 -3.703125 2.734375 -5.671875q2.734375 -1.984375 7.921875 -2.0l2.84375 0l0 -1.3281288q0 -1.609375 -0.828125 -2.578125q-0.8125 -0.96875 -2.609375 -0.96875q-1.5625 0 -2.453125 0.75q-0.890625 0.75 -0.890625 2.0625l-6.203125 0q0 -2.015625 1.234375 -3.734375q1.25 -1.71875 3.53125 -2.6875q2.28125 -0.984375 5.109375 -0.984375q4.296875 0 6.8125 2.15625q2.53125 2.15625 2.53125 6.0625l0 10.078129q0.03125 3.3125 0.921875 5.015625l0 0.359375l-6.265625 0zm-5.140625 -4.3125q1.375 0 2.53125 -0.609375q1.171875 -0.625 1.71875 -1.65625l0 -4.0l-2.3125 0q-4.65625 0 -4.96875 3.234375l-0.015625 0.359375q0 1.15625 0.8125 1.921875q0.8125 0.75 2.234375 0.75zm23.611328 -4.46875l4.296875 -14.468754l6.65625 0l-9.34375 26.859379l-0.515625 1.21875q-2.078125 4.5625 -6.875 4.5625q-1.34375 0 -2.75 -0.40625l0 -4.703125l0.953125 0.015625q1.765625 0 2.625 -0.546875q0.875 -0.53125 1.375 -1.765625l0.71875 -1.921875l-8.140625 -23.312504l6.6875 0l4.3125 14.468754zm23.822266 9.21875q-5.109375 0 -8.328125 -3.140625q-3.203125 -3.140625 -3.203125 -8.359375l0 -0.609375q0 -3.5 1.34375 -6.250004q1.359375 -2.765625 3.84375 -4.25q2.484375 -1.5 5.65625 -1.5q4.78125 0 7.515625 3.015625q2.734375 3.0 2.734375 8.515629l0 2.53125l-14.796875 0q0.296875 2.28125 1.8125 3.65625q1.515625 1.375 3.84375 1.375q3.578125 0 5.59375 -2.59375l3.0625 3.40625q-1.40625 1.984375 -3.796875 3.09375q-2.375 1.109375 -5.28125 1.109375zm-0.703125 -19.093754q-1.84375 0 -3.0 1.25q-1.140625 1.25 -1.46875 3.5625038l8.640625 0l0 -0.484375q-0.046875 -2.0625038 -1.125 -3.1875038q-1.0625 -1.140625 -3.046875 -1.140625zm26.861328 1.234375q-1.265625 -0.171875 -2.234375 -0.171875q-3.53125 0 -4.625 2.3750038l0 15.21875l-6.203125 0l0 -23.250004l5.859375 0l0.171875 2.78125q1.875 -3.203125 5.171875 -3.203125q1.03125 0 1.9375 0.28125l-0.078125 5.96875zm30.56836 9.218754q0 -1.828125 -1.296875 -2.796875q-1.28125 -0.984375 -4.640625 -2.0625q-3.34375 -1.09375 -5.296875 -2.15625q-5.328125 -2.8750038 -5.328125 -7.750004q0 -2.53125 1.421875 -4.515625q1.4375 -2.0 4.109375 -3.109375q2.671875 -1.125 6.0 -1.125q3.359375 0 5.96875 1.21875q2.625 1.21875 4.078125 3.4375q1.453125 2.203125 1.453125 5.015625l-6.453125 0q0 -2.140625 -1.359375 -3.328125q-1.34375 -1.203125 -3.796875 -1.203125q-2.359375 0 -3.671875 1.0q-1.3125 1.0 -1.3125 2.625q0 1.53125 1.53125 2.5625q1.546875 1.03125 4.53125 1.9375q5.5 1.65625 8.015625 4.109379q2.515625 2.4375 2.515625 6.09375q0 4.0625 -3.078125 6.375q-3.0625 2.3125 -8.265625 2.3125q-3.609375 0 -6.578125 -1.328125q-2.96875 -1.328125 -4.53125 -3.625q-1.546875 -2.296875 -1.546875 -5.328125l6.46875 0q0 5.1875 6.1875 5.1875q2.296875 0 3.578125 -0.9375q1.296875 -0.9375 1.296875 -2.609375zm16.126953 -15.046879l0.203125 2.6875q2.484375 -3.109375 6.671875 -3.109375q3.703125 0 5.5 2.171875q1.8125 2.15625 1.859375 6.484379l0 15.015625l-6.21875 0l0 -14.875q0 -1.9687538 -0.859375 -2.8593788q-0.859375 -0.890625 -2.859375 -0.890625q-2.609375 0 -3.921875 2.234375l0 16.390629l-6.21875 0l0 -23.250004l5.84375 0zm32.408203 23.250004q-0.4375 -0.84375 -0.625 -2.078125q-2.25 2.515625 -5.859375 2.515625q-3.421875 0 -5.671875 -1.984375q-2.234375 -1.984375 -2.234375 -4.984375q0 -3.703125 2.734375 -5.671875q2.734375 -1.984375 7.921875 -2.0l2.84375 0l0 -1.3281288q0 -1.609375 -0.828125 -2.578125q-0.8125 -0.96875 -2.609375 -0.96875q-1.5625 0 -2.453125 0.75q-0.890625 0.75 -0.890625 2.0625l-6.203125 0q0 -2.015625 1.234375 -3.734375q1.25 -1.71875 3.53125 -2.6875q2.28125 -0.984375 5.109375 -0.984375q4.296875 0 6.8125 2.15625q2.53125 2.15625 2.53125 6.0625l0 10.078129q0.03125 3.3125 0.921875 5.015625l0 0.359375l-6.265625 0zm-5.140625 -4.3125q1.375 0 2.53125 -0.609375q1.171875 -0.625 1.71875 -1.65625l0 -4.0l-2.3125 0q-4.65625 0 -4.96875 3.234375l-0.015625 0.359375q0 1.15625 0.8125 1.921875q0.8125 0.75 2.234375 0.75zm23.699219 -5.015625l-2.234375 2.234375l0 7.09375l-6.203125 0l0 -33.000004l6.203125 0l0 18.281254l1.203125 -1.5468788l5.953125 -6.984375l7.453125 0l-8.40625 9.687504l9.140625 13.5625l-7.140625 0l-5.96875 -9.328125zm25.324219 9.765625q-5.109375 0 -8.328125 -3.140625q-3.203125 -3.140625 -3.203125 -8.359375l0 -0.609375q0 -3.5 1.34375 -6.250004q1.359375 -2.765625 3.84375 -4.25q2.484375 -1.5 5.65625 -1.5q4.78125 0 7.515625 3.015625q2.734375 3.0 2.734375 8.515629l0 2.53125l-14.796875 0q0.296875 2.28125 1.8125 3.65625q1.515625 1.375 3.84375 1.375q3.578125 0 5.59375 -2.59375l3.0625 3.40625q-1.40625 1.984375 -3.796875 3.09375q-2.375 1.109375 -5.28125 1.109375zm-0.703125 -19.093754q-1.84375 0 -3.0 1.25q-1.140625 1.25 -1.46875 3.5625038l8.640625 0l0 -0.484375q-0.046875 -2.0625038 -1.125 -3.1875038q-1.0625 -1.140625 -3.046875 -1.140625zm49.91211 14.703129q-1.75 2.078125 -4.9375 3.234375q-3.171875 1.15625 -7.03125 1.15625q-4.0625 0 -7.125 -1.765625q-3.0625 -1.78125 -4.734375 -5.15625q-1.65625 -3.375 -1.703125 -7.9375l0 -2.1250038q0 -4.6875 1.578125 -8.109375q1.578125 -3.421875 4.546875 -5.234375q2.984375 -1.828125 6.984375 -1.828125q5.5625 0 8.703125 2.65625q3.140625 2.65625 3.71875 7.734375l-6.28125 0q-0.421875 -2.6875 -1.90625 -3.9375q-1.46875 -1.25 -4.046875 -1.25q-3.28125 0 -5.0 2.46875q-1.71875 2.46875 -1.734375 7.359375l0 1.9843788q0 4.921875 1.859375 7.4375q1.875 2.515625 5.484375 2.515625q3.625 0 5.171875 -1.546875l0 -5.390625l-5.859375 0l0 -4.750004l12.3125 0l0 12.484379zm18.283203 3.953125q-0.4375 -0.84375 -0.625 -2.078125q-2.25 2.515625 -5.859375 2.515625q-3.421875 0 -5.671875 -1.984375q-2.234375 -1.984375 -2.234375 -4.984375q0 -3.703125 2.734375 -5.671875q2.734375 -1.984375 7.921875 -2.0l2.84375 0l0 -1.3281288q0 -1.609375 -0.828125 -2.578125q-0.8125 -0.96875 -2.609375 -0.96875q-1.5625 0 -2.453125 0.75q-0.890625 0.75 -0.890625 2.0625l-6.203125 0q0 -2.015625 1.234375 -3.734375q1.25 -1.71875 3.53125 -2.6875q2.28125 -0.984375 5.109375 -0.984375q4.296875 0 6.8125 2.15625q2.53125 2.15625 2.53125 6.0625l0 10.078129q0.03125 3.3125 0.921875 5.015625l0 0.359375l-6.265625 0zm-5.140625 -4.3125q1.375 0 2.53125 -0.609375q1.171875 -0.625 1.71875 -1.65625l0 -4.0l-2.3125 0q-4.65625 0 -4.96875 3.234375l-0.015625 0.359375q0 1.15625 0.8125 1.921875q0.8125 0.75 2.234375 0.75zm21.074219 -18.937504l0.203125 2.609375q2.46875 -3.03125 6.671875 -3.03125q4.5 0 6.171875 3.546875q2.453125 -3.546875 6.984375 -3.546875q3.78125 0 5.625 2.203125q1.84375 2.203125 1.84375 6.625004l0 14.84375l-6.21875 0l0 -14.828125q0 -1.9687538 -0.78125 -2.8750038q-0.765625 -0.921875 -2.734375 -0.921875q-2.78125 0 -3.859375 2.65625l0.015625 15.968754l-6.203125 0l0 -14.796875q0 -2.0312538 -0.796875 -2.9218788q-0.796875 -0.90625 -2.703125 -0.90625q-2.640625 0 -3.828125 2.1875l0 16.437504l-6.203125 0l0 -23.250004l5.8125 0zm42.966797 23.687504q-5.109375 0 -8.328125 -3.140625q-3.203125 -3.140625 -3.203125 -8.359375l0 -0.609375q0 -3.5 1.34375 -6.250004q1.359375 -2.765625 3.84375 -4.25q2.484375 -1.5 5.65625 -1.5q4.78125 0 7.515625 3.015625q2.734375 3.0 2.734375 8.515629l0 2.53125l-14.796875 0q0.296875 2.28125 1.8125 3.65625q1.515625 1.375 3.84375 1.375q3.578125 0 5.59375 -2.59375l3.0625 3.40625q-1.40625 1.984375 -3.796875 3.09375q-2.375 1.109375 -5.28125 1.109375zm-0.703125 -19.093754q-1.84375 0 -3.0 1.25q-1.140625 1.25 -1.46875 3.5625038l8.640625 0l0 -0.484375q-0.046875 -2.0625038 -1.125 -3.1875038q-1.0625 -1.140625 -3.046875 -1.140625z" fill-rule="nonzero"/><path fill="#ff7860" d="m192.0372 156.19672l-6.90625 0l0 11.890625l-3.890625 0l0 -29.375l9.71875 0q4.96875 0 7.640625 2.265625q2.671875 2.25 2.671875 6.5625q0 2.75 -1.484375 4.796875q-1.46875 2.03125 -4.125 3.03125l6.90625 12.484375l0 0.234375l-4.15625 0l-6.375 -11.890625zm-6.90625 -3.15625l5.953125 0q2.890625 0 4.59375 -1.5q1.703125 -1.5 1.703125 -4.0q0 -2.71875 -1.625 -4.171875q-1.625 -1.453125 -4.6875 -1.46875l-5.9375 0l0 11.140625zm30.056046 15.453125q-4.4375 0 -7.234375 -2.90625q-2.78125 -2.921875 -2.78125 -7.8125l0 -0.6875q0 -3.25 1.234375 -5.796875q1.25 -2.5625 3.46875 -4.0q2.234375 -1.4375 4.84375 -1.4375q4.25 0 6.609375 2.8125q2.375 2.796875 2.375 8.015625l0 1.5625l-14.796875 0q0.078125 3.21875 1.875 5.21875q1.8125 1.984375 4.609375 1.984375q1.96875 0 3.34375 -0.8125q1.375 -0.8125 2.40625 -2.140625l2.28125 1.78125q-2.75 4.21875 -8.234375 4.21875zm-0.46875 -19.578125q-2.265625 0 -3.796875 1.65625q-1.53125 1.640625 -1.890625 4.59375l10.9375 0l0 -0.28125q-0.171875 -2.84375 -1.546875 -4.40625q-1.359375 -1.5625 -3.703125 -1.5625zm12.395035 8.078125q0 -5.03125 2.375 -8.078125q2.375 -3.0625 6.234375 -3.0625q3.84375 0 6.078125 2.625l0 -11.390625l3.734375 0l0 31.0l-3.4375 0l-0.171875 -2.34375q-2.25 2.75 -6.234375 2.75q-3.796875 0 -6.1875 -3.109375q-2.390625 -3.109375 -2.390625 -8.109375l0 -0.28125zm3.734375 0.421875q0 3.703125 1.53125 5.8125q1.53125 2.09375 4.234375 2.09375q3.546875 0 5.1875 -3.1875l0 -10.03125q-1.671875 -3.078125 -5.140625 -3.078125q-2.75 0 -4.28125 2.125q-1.53125 2.109375 -1.53125 6.265625zm30.570007 -1.25q0 -4.5625 1.21875 -8.75q1.21875 -4.203125 3.640625 -7.640625q2.421875 -3.4375 5.03125 -4.84375l0.765625 2.46875q-2.953125 2.25 -4.84375 6.890625q-1.875 4.640625 -2.0625 10.390625l-0.015625 1.71875q0 7.796875 2.84375 13.53125q1.71875 3.421875 4.078125 5.359375l-0.765625 2.28125q-2.6875 -1.5 -5.125 -5.0q-4.765625 -6.859375 -4.765625 -16.40625zm21.551605 2.65625l0.5625 3.875l0.828125 -3.484375l5.8125 -20.5l3.265625 0l5.671875 20.5l0.8125 3.546875l0.625 -3.953125l4.5625 -20.09375l3.890625 0l-7.125 29.375l-3.53125 0l-6.0625 -21.40625l-0.453125 -2.25l-0.46875 2.25l-6.28125 21.40625l-3.53125 0l-7.09375 -29.375l3.875 0l4.640625 20.109375zm45.689392 1.59375l-12.3125 0l-2.765625 7.671875l-4.0 0l11.21875 -29.375l3.390625 0l11.25 29.375l-3.984375 0l-2.796875 -7.671875zm-11.140625 -3.1875l9.984375 0l-5.0 -13.734375l-4.984375 13.734375zm30.522644 -2.234375q-4.984375 -1.4375 -7.25 -3.515625q-2.265625 -2.09375 -2.265625 -5.171875q0 -3.46875 2.765625 -5.734375q2.78125 -2.265625 7.21875 -2.265625q3.03125 0 5.390625 1.171875q2.375 1.171875 3.671875 3.234375q1.3125 2.046875 1.3125 4.484375l-3.890625 0q0 -2.65625 -1.703125 -4.171875q-1.6875 -1.53125 -4.78125 -1.53125q-2.859375 0 -4.46875 1.265625q-1.609375 1.25 -1.609375 3.5q0 1.796875 1.515625 3.03125q1.53125 1.234375 5.1875 2.265625q3.671875 1.03125 5.734375 2.28125q2.078125 1.234375 3.078125 2.890625q1.0 1.65625 1.0 3.890625q0 3.578125 -2.796875 5.734375q-2.78125 2.140625 -7.4375 2.140625q-3.03125 0 -5.65625 -1.15625q-2.625 -1.171875 -4.046875 -3.1875q-1.421875 -2.015625 -1.421875 -4.578125l3.90625 0q0 2.65625 1.953125 4.203125q1.96875 1.546875 5.265625 1.546875q3.0625 0 4.6875 -1.25q1.640625 -1.25 1.640625 -3.40625q0 -2.15625 -1.515625 -3.34375q-1.5 -1.1875 -5.484375 -2.328125zm15.862152 13.09375l0 -29.375l8.296875 0q3.828125 0 6.78125 1.703125q2.953125 1.6875 4.546875 4.8125q1.609375 3.125 1.625 7.1875l0 1.875q0 4.15625 -1.609375 7.28125q-1.59375 3.125 -4.578125 4.796875q-2.96875 1.671875 -6.921875 1.71875l-8.140625 0zm3.875 -26.1875l0 23.015625l4.078125 0q4.484375 0 6.96875 -2.78125q2.5 -2.78125 2.5 -7.9375l0 -1.703125q0 -5.015625 -2.359375 -7.78125q-2.34375 -2.78125 -6.65625 -2.8125l-4.53125 0zm31.25766 14.46875q0 4.5 -1.1875 8.625q-1.171875 4.125 -3.609375 7.609375q-2.421875 3.5 -5.09375 4.96875l-0.78125 -2.28125q3.109375 -2.375 4.984375 -7.390625q1.890625 -5.015625 1.9375 -11.140625l0 -0.640625q0 -4.234375 -0.890625 -7.875q-0.890625 -3.640625 -2.46875 -6.53125q-1.578125 -2.890625 -3.5625 -4.5l0.78125 -2.28125q2.671875 1.46875 5.078125 4.921875q2.421875 3.453125 3.609375 7.609375q1.203125 4.15625 1.203125 8.90625z" fill-rule="nonzero"/><path fill="#ffffff" d="m422.22836 163.02484l5.40625 -16.765625l3.8125 0l-7.828125 21.828125l-2.84375 0l-7.90625 -21.828125l3.8125 0l5.546875 16.765625zm25.51831 -0.734375q0 -1.515625 -1.140625 -2.34375q-1.125 -0.84375 -3.96875 -1.4375q-2.828125 -0.609375 -4.5 -1.453125q-1.65625 -0.859375 -2.46875 -2.03125q-0.796875 -1.171875 -0.796875 -2.78125q0 -2.6875 2.265625 -4.53125q2.28125 -1.859375 5.8125 -1.859375q3.71875 0 6.015625 1.921875q2.3125 1.90625 2.3125 4.890625l-3.75 0q0 -1.53125 -1.296875 -2.640625q-1.296875 -1.109375 -3.28125 -1.109375q-2.03125 0 -3.1875 0.890625q-1.15625 0.890625 -1.15625 2.3125q0 1.359375 1.0625 2.046875q1.078125 0.6875 3.875 1.3125q2.796875 0.625 4.53125 1.5q1.734375 0.859375 2.5625 2.078125q0.84375 1.21875 0.84375 2.984375q0 2.921875 -2.34375 4.6875q-2.328125 1.765625 -6.0625 1.765625q-2.625 0 -4.640625 -0.921875q-2.015625 -0.9375 -3.15625 -2.59375q-1.140625 -1.671875 -1.140625 -3.609375l3.734375 0q0.09375 1.875 1.5 2.984375q1.40625 1.09375 3.703125 1.09375q2.109375 0 3.390625 -0.859375q1.28125 -0.859375 1.28125 -2.296875z" fill-rule="nonzero"/><path fill="#42bdff" d="m485.06888 157.41547q0 5.0 -2.3125 8.046875q-2.296875 3.03125 -6.171875 3.03125q-4.125 0 -6.390625 -2.921875l-0.1875 2.515625l-3.421875 0l0 -31.0l3.734375 0l0 11.5625q2.25 -2.796875 6.21875 -2.796875q3.984375 0 6.25 3.015625q2.28125 3.0 2.28125 8.21875l0 0.328125zm-3.734375 -0.421875q0 -3.8125 -1.484375 -5.890625q-1.46875 -2.078125 -4.234375 -2.078125q-3.6875 0 -5.296875 3.421875l0 9.453125q1.71875 3.421875 5.34375 3.421875q2.6875 0 4.171875 -2.078125q1.5 -2.078125 1.5 -6.25zm12.483429 11.09375l-3.734375 0l0 -31.0l3.734375 0l0 31.0zm19.466858 -2.15625q-2.1875305 2.5625 -6.4062805 2.5625q-3.484375 0 -5.3125 -2.03125q-1.828125 -2.03125 -1.84375 -6.0l0 -14.203125l3.734375 0l0 14.09375q0 4.96875 4.03125 4.96875q4.28125 0 5.6875305 -3.1875l0 -15.875l3.734375 0l0 21.828125l-3.546875 0l-0.078125 -2.15625zm18.361023 2.5625q-4.4375 0 -7.234375 -2.90625q-2.78125 -2.921875 -2.78125 -7.8125l0 -0.6875q0 -3.25 1.234375 -5.796875q1.25 -2.5625 3.46875 -4.0q2.234375 -1.4375 4.84375 -1.4375q4.25 0 6.609375 2.8125q2.375 2.796875 2.375 8.015625l0 1.5625l-14.796875 0q0.078125 3.21875 1.875 5.21875q1.8125 1.984375 4.609375 1.984375q1.96875 0 3.34375 -0.8125q1.375 -0.8125 2.40625 -2.140625l2.28125 1.78125q-2.75 4.21875 -8.234375 4.21875zm-0.46875 -19.578125q-2.265625 0 -3.796875 1.65625q-1.53125 1.640625 -1.890625 4.59375l10.9375 0l0 -0.28125q-0.171875 -2.84375 -1.546875 -4.40625q-1.359375 -1.5625 -3.703125 -1.5625zm23.391846 7.25q0 -4.5625 1.21875 -8.75q1.21875 -4.203125 3.640625 -7.640625q2.421875 -3.4375 5.03125 -4.84375l0.765625 2.46875q-2.953125 2.25 -4.84375 6.890625q-1.875 4.640625 -2.0625 10.390625l-0.015625 1.71875q0 7.796875 2.84375 13.53125q1.71875 3.421875 4.078125 5.359375l-0.765625 2.28125q-2.6875 -1.5 -5.125 -5.0q-4.765625 -6.859375 -4.765625 -16.40625zm27.750793 11.921875q-0.328125 -0.640625 -0.53125 -2.296875q-2.609375 2.703125 -6.21875 2.703125q-3.21875 0 -5.296875 -1.828125q-2.0625 -1.828125 -2.0625 -4.625q0 -3.421875 2.59375 -5.296875q2.59375 -1.890625 7.296875 -1.890625l3.625 0l0 -1.71875q0 -1.953125 -1.171875 -3.109375q-1.171875 -1.171875 -3.453125 -1.171875q-2.0 0 -3.359375 1.015625q-1.34375 1.0 -1.34375 2.4375l-3.75 0q0 -1.640625 1.15625 -3.15625q1.171875 -1.53125 3.15625 -2.40625q1.984375 -0.890625 4.375 -0.890625q3.765625 0 5.90625 1.890625q2.140625 1.875 2.21875 5.1875l0 10.046875q0 3.015625 0.765625 4.78125l0 0.328125l-3.90625 0zm-6.203125 -2.84375q1.75 0 3.328125 -0.90625q1.578125 -0.90625 2.28125 -2.359375l0 -4.484375l-2.921875 0q-6.859375 0 -6.859375 4.015625q0 1.75 1.171875 2.75q1.171875 0.984375 3.0 0.984375zm25.74585 -15.640625q-0.84375 -0.140625 -1.828125 -0.140625q-3.671875 0 -4.984375 3.125l0 15.5l-3.734375 0l0 -21.828125l3.625 0l0.0625 2.515625q1.84375 -2.921875 5.203125 -2.921875q1.09375 0 1.65625 0.28125l0 3.46875zm13.984558 0q-0.84375 -0.140625 -1.828125 -0.140625q-3.671875 0 -4.984375 3.125l0 15.5l-3.734375 0l0 -21.828125l3.625 0l0.0625 2.515625q1.84375 -2.921875 5.203125 -2.921875q1.09375 0 1.65625 0.28125l0 3.46875zm2.0496826 7.359375q0 -3.203125 1.25 -5.765625q1.265625 -2.5625 3.515625 -3.953125q2.25 -1.390625 5.140625 -1.390625q4.453125 0 7.203125 3.09375q2.765625 3.078125 2.765625 8.203125l0 0.265625q0 3.1875 -1.234375 5.71875q-1.21875 2.53125 -3.484375 3.953125q-2.265625 1.40625 -5.21875 1.40625q-4.4375 0 -7.1875 -3.078125q-2.75 -3.09375 -2.75 -8.1875l0 -0.265625zm3.75 0.453125q0 3.625 1.671875 5.828125q1.6875 2.203125 4.515625 2.203125q2.84375 0 4.515625 -2.234375q1.6875 -2.234375 1.6875 -6.25q0 -3.59375 -1.71875 -5.8125q-1.703125 -2.234375 -4.515625 -2.234375q-2.765625 0 -4.46875 2.203125q-1.6875 2.203125 -1.6875 6.296875zm40.132446 5.53125l4.203125 -16.6875l3.734375 0l-6.359375 21.828125l-3.03125 0l-5.3125 -16.546875l-5.15625 16.546875l-3.03125 0l-6.328125 -21.828125l3.703125 0l4.296875 16.34375l5.09375 -16.34375l3.0 0l5.1875 16.6875zm28.053467 -4.96875l-2.34375 2.4375l0 7.671875l-3.734375 0l0 -31.0l3.734375 0l0 18.75l2.0 -2.40625l6.796875 -7.171875l4.546875 0l-8.5 9.109375l9.484375 12.71875l-4.375 0l-7.609375 -10.109375zm23.511658 10.515625q-4.4375 0 -7.234375 -2.90625q-2.78125 -2.921875 -2.78125 -7.8125l0 -0.6875q0 -3.25 1.234375 -5.796875q1.25 -2.5625 3.46875 -4.0q2.234375 -1.4375 4.84375 -1.4375q4.25 0 6.609375 2.8125q2.375 2.796875 2.375 8.015625l0 1.5625l-14.796875 0q0.078125 3.21875 1.875 5.21875q1.8125 1.984375 4.609375 1.984375q1.96875 0 3.34375 -0.8125q1.375 -0.8125 2.40625 -2.140625l2.28125 1.78125q-2.75 4.21875 -8.234375 4.21875zm-0.46875 -19.578125q-2.265625 0 -3.796875 1.65625q-1.53125 1.640625 -1.890625 4.59375l10.9375 0l0 -0.28125q-0.171875 -2.84375 -1.546875 -4.40625q-1.359375 -1.5625 -3.703125 -1.5625zm20.179504 13.703125l5.078125 -16.359375l4.0 0l-8.78125 25.203125q-2.03125 5.4375 -6.46875 5.4375l-0.703125 -0.046875l-1.40625 -0.265625l0 -3.03125l1.015625 0.078125q1.890625 0 2.953125 -0.765625q1.0625 -0.765625 1.75 -2.796875l0.828125 -2.21875l-7.796875 -21.59375l4.078125 0l5.453125 16.359375zm25.1167 -0.328125q0 -1.515625 -1.140625 -2.34375q-1.125 -0.84375 -3.96875 -1.4375q-2.828125 -0.609375 -4.5 -1.453125q-1.65625 -0.859375 -2.46875 -2.03125q-0.796875 -1.171875 -0.796875 -2.78125q0 -2.6875 2.265625 -4.53125q2.28125 -1.859375 5.8125 -1.859375q3.71875 0 6.015625 1.921875q2.3125 1.90625 2.3125 4.890625l-3.75 0q0 -1.53125 -1.296875 -2.640625q-1.296875 -1.109375 -3.28125 -1.109375q-2.03125 0 -3.1875 0.890625q-1.15625 0.890625 -1.15625 2.3125q0 1.359375 1.0625 2.046875q1.078125 0.6875 3.875 1.3125q2.796875 0.625 4.53125 1.5q1.734375 0.859375 2.5625 2.078125q0.84375 1.21875 0.84375 2.984375q0 2.921875 -2.34375 4.6875q-2.328125 1.765625 -6.0625 1.765625q-2.625 0 -4.640625 -0.921875q-2.015625 -0.9375 -3.15625 -2.59375q-1.140625 -1.671875 -1.140625 -3.609375l3.734375 0q0.09375 1.875 1.5 2.984375q1.40625 1.09375 3.703125 1.09375q2.109375 0 3.390625 -0.859375q1.28125 -0.859375 1.28125 -2.296875zm17.216064 -5.921875q0 4.5 -1.1875 8.625q-1.171875 4.125 -3.609375 7.609375q-2.421875 3.5 -5.09375 4.96875l-0.78125 -2.28125q3.109375 -2.375 4.984375 -7.390625q1.890625 -5.015625 1.9375 -11.140625l0 -0.640625q0 -4.234375 -0.890625 -7.875q-0.890625 -3.640625 -2.46875 -6.53125q-1.578125 -2.890625 -3.5625 -4.5l0.78125 -2.28125q2.671875 1.46875 5.078125 4.921875q2.421875 3.453125 3.609375 7.609375q1.203125 4.15625 1.203125 8.90625z" fill-rule="nonzero"/><path fill="#ffffff" d="m345.8912 204.71858l-12.328125 0l0 12.96875l-3.875 0l0 -29.375l18.203125 0l0 3.1875l-14.328125 0l0 10.046875l12.328125 0l0 3.171875zm4.654022 1.84375q0 -3.203125 1.25 -5.765625q1.265625 -2.5625 3.515625 -3.953125q2.25 -1.390625 5.140625 -1.390625q4.453125 0 7.203125 3.09375q2.765625 3.078125 2.765625 8.203125l0 0.265625q0 3.1875 -1.234375 5.71875q-1.21875 2.53125 -3.484375 3.953125q-2.265625 1.40625 -5.21875 1.40625q-4.4375 0 -7.1875 -3.078125q-2.75 -3.09375 -2.75 -8.1875l0 -0.265625zm3.75 0.453125q0 3.625 1.671875 5.828125q1.6875 2.203125 4.515625 2.203125q2.84375 0 4.515625 -2.234375q1.6875 -2.234375 1.6875 -6.25q0 -3.59375 -1.71875 -5.8125q-1.703125 -2.234375 -4.515625 -2.234375q-2.765625 0 -4.46875 2.203125q-1.6875 2.203125 -1.6875 6.296875zm19.819946 -0.453125q0 -3.203125 1.25 -5.765625q1.265625 -2.5625 3.515625 -3.953125q2.25 -1.390625 5.140625 -1.390625q4.453125 0 7.203125 3.09375q2.765625 3.078125 2.765625 8.203125l0 0.265625q0 3.1875 -1.234375 5.71875q-1.21875 2.53125 -3.484375 3.953125q-2.265625 1.40625 -5.21875 1.40625q-4.4375 0 -7.1875 -3.078125q-2.75 -3.09375 -2.75 -8.1875l0 -0.265625zm3.75 0.453125q0 3.625 1.671875 5.828125q1.6875 2.203125 4.515625 2.203125q2.84375 0 4.515625 -2.234375q1.6875 -2.234375 1.6875 -6.25q0 -3.59375 -1.71875 -5.8125q-1.703125 -2.234375 -4.515625 -2.234375q-2.765625 0 -4.46875 2.203125q-1.6875 2.203125 -1.6875 6.296875zm19.898071 -0.421875q0 -5.03125 2.375 -8.078125q2.375 -3.0625 6.234375 -3.0625q3.84375 0 6.078125 2.625l0 -11.390625l3.734375 0l0 31.0l-3.4375 0l-0.171875 -2.34375q-2.25 2.75 -6.234375 2.75q-3.796875 0 -6.1875 -3.109375q-2.390625 -3.109375 -2.390625 -8.109375l0 -0.28125zm3.734375 0.421875q0 3.703125 1.53125 5.8125q1.53125 2.09375 4.234375 2.09375q3.546875 0 5.1875 -3.1875l0 -10.03125q-1.671875 -3.078125 -5.140625 -3.078125q-2.75 0 -4.28125 2.125q-1.53125 2.109375 -1.53125 6.265625zm34.757507 10.671875l-3.734375 0l0 -21.828125l3.734375 0l0 21.828125zm-4.03125 -27.625q0 -0.90625 0.546875 -1.53125q0.5625 -0.625 1.65625 -0.625q1.09375 0 1.65625 0.625q0.5625 0.625 0.5625 1.53125q0 0.90625 -0.5625 1.515625q-0.5625 0.609375 -1.65625 0.609375q-1.09375 0 -1.65625 -0.609375q-0.546875 -0.609375 -0.546875 -1.515625zm22.716858 21.828125q0 -1.515625 -1.140625 -2.34375q-1.125 -0.84375 -3.96875 -1.4375q-2.828125 -0.609375 -4.5 -1.453125q-1.65625 -0.859375 -2.46875 -2.03125q-0.796875 -1.171875 -0.796875 -2.78125q0 -2.6875 2.265625 -4.53125q2.28125 -1.859375 5.8125 -1.859375q3.71875 0 6.015625 1.921875q2.3125 1.90625 2.3125 4.890625l-3.75 0q0 -1.53125 -1.296875 -2.640625q-1.296875 -1.109375 -3.28125 -1.109375q-2.03125 0 -3.1875 0.890625q-1.15625 0.890625 -1.15625 2.3125q0 1.359375 1.0625 2.046875q1.078125 0.6875 3.875 1.3125q2.796875 0.625 4.53125 1.5q1.734375 0.859375 2.5625 2.078125q0.84375 1.21875 0.84375 2.984375q0 2.921875 -2.34375 4.6875q-2.328125 1.765625 -6.0625 1.765625q-2.625 0 -4.640625 -0.921875q-2.015625 -0.9375 -3.15625 -2.59375q-1.140625 -1.671875 -1.140625 -3.609375l3.734375 0q0.09375 1.875 1.5 2.984375q1.40625 1.09375 3.703125 1.09375q2.109375 0 3.390625 -0.859375q1.28125 -0.859375 1.28125 -2.296875zm22.884705 5.796875l-3.734375 0l0 -21.828125l3.734375 0l0 21.828125zm-4.03125 -27.625q0 -0.90625 0.546875 -1.53125q0.5625 -0.625 1.65625 -0.625q1.09375 0 1.65625 0.625q0.5625 0.625 0.5625 1.53125q0 0.90625 -0.5625 1.515625q-0.5625 0.609375 -1.65625 0.609375q-1.09375 0 -1.65625 -0.609375q-0.546875 -0.609375 -0.546875 -1.515625zm13.544952 5.796875l0.125 2.734375q2.5 -3.140625 6.53125 -3.140625q6.921875 0 6.984375 7.8125l0 14.421875l-3.734375 0l0 -14.453125q-0.015625 -2.359375 -1.078125 -3.484375q-1.0625 -1.125 -3.296875 -1.125q-1.828125 0 -3.203125 0.96875q-1.359375 0.96875 -2.125 2.53125l0 15.5625l-3.734375 0l0 -21.828125l3.53125 0z" fill-rule="nonzero"/><path fill="#ffd500" d="m523.9828 212.21858l5.078125 -16.359375l4.0 0l-8.78125 25.203125q-2.03125 5.4375 -6.46875 5.4375l-0.703125 -0.046875l-1.40625 -0.265625l0 -3.03125l1.015625 0.078125q1.890625 0 2.953125 -0.765625q1.0625 -0.765625 1.75 -2.796875l0.828125 -2.21875l-7.796875 -21.59375l4.078125 0l5.453125 16.359375zm21.213684 5.875q-4.4375 0 -7.234375 -2.90625q-2.78125 -2.921875 -2.78125 -7.8125l0 -0.6875q0 -3.25 1.234375 -5.796875q1.25 -2.5625 3.46875 -4.0q2.234375 -1.4375 4.84375 -1.4375q4.25 0 6.609375 2.8125q2.375 2.796875 2.375 8.015625l0 1.5625l-14.796875 0q0.078125 3.21875 1.875 5.21875q1.8125 1.984375 4.609375 1.984375q1.96875 0 3.34375 -0.8125q1.375 -0.8125 2.40625 -2.140625l2.28125 1.78125q-2.75 4.21875 -8.234375 4.21875zm-0.46875 -19.578125q-2.265625 0 -3.796875 1.65625q-1.53125 1.640625 -1.890625 4.59375l10.9375 0l0 -0.28125q-0.171875 -2.84375 -1.546875 -4.40625q-1.359375 -1.5625 -3.703125 -1.5625zm17.348145 19.171875l-3.734375 0l0 -31.0l3.734375 0l0 31.0zm10.029358 0l-3.734375 0l0 -31.0l3.734375 0l0 31.0zm4.998108 -11.125q0 -3.203125 1.25 -5.765625q1.265625 -2.5625 3.515625 -3.953125q2.25 -1.390625 5.140625 -1.390625q4.453125 0 7.203125 3.09375q2.765625 3.078125 2.765625 8.203125l0 0.265625q0 3.1875 -1.234375 5.71875q-1.21875 2.53125 -3.484375 3.953125q-2.265625 1.40625 -5.21875 1.40625q-4.4375 0 -7.1875 -3.078125q-2.75 -3.09375 -2.75 -8.1875l0 -0.265625zm3.75 0.453125q0 3.625 1.671875 5.828125q1.6875 2.203125 4.515625 2.203125q2.84375 0 4.515625 -2.234375q1.6875 -2.234375 1.6875 -6.25q0 -3.59375 -1.71875 -5.8125q-1.703125 -2.234375 -4.515625 -2.234375q-2.765625 0 -4.46875 2.203125q-1.6875 2.203125 -1.6875 6.296875zm40.132446 5.53125l4.203125 -16.6875l3.734375 0l-6.359375 21.828125l-3.03125 0l-5.3125 -16.546875l-5.15625 16.546875l-3.03125 0l-6.328125 -21.828125l3.703125 0l4.296875 16.34375l5.09375 -16.34375l3.0 0l5.1875 16.6875z" fill-rule="nonzero"/><path fill="#ffffff" d="m75.86738 267.28732l0 -29.375l9.609375 0q4.78125 0 7.1875 1.984375q2.421875 1.96875 2.421875 5.84375q0 2.046875 -1.171875 3.640625q-1.171875 1.578125 -3.1875 2.453125q2.375 0.65625 3.75 2.53125q1.390625 1.859375 1.390625 4.453125q0 3.953125 -2.5625 6.21875q-2.5625 2.25 -7.25 2.25l-10.1875 0zm3.875 -13.75l0 10.578125l6.40625 0q2.703125 0 4.265625 -1.390625q1.5625 -1.40625 1.5625 -3.875q0 -5.3125 -5.765625 -5.3125l-6.46875 0zm0 -3.09375l5.859375 0q2.53125 0 4.0625 -1.265625q1.53125 -1.28125 1.53125 -3.46875q0 -2.421875 -1.421875 -3.515625q-1.40625 -1.09375 -4.296875 -1.09375l-5.734375 0l0 9.34375zm34.760437 14.6875q-2.1875 2.5625 -6.40625 2.5625q-3.484375 0 -5.3125 -2.03125q-1.828125 -2.03125 -1.84375 -6.0l0 -14.203125l3.734375 0l0 14.09375q0 4.96875 4.03125 4.96875q4.28125 0 5.6875 -3.1875l0 -15.875l3.734375 0l0 21.828125l-3.546875 0l-0.078125 -2.15625zm12.814194 -19.671875l0.09375 2.421875q2.4062424 -2.828125 6.4843674 -2.828125q4.578125 0 6.234375 3.5q1.078125 -1.5625 2.828125 -2.53125q1.75 -0.96875 4.125 -0.96875q7.1875 0 7.3125 7.609375l0 14.625l-3.734375 0l0 -14.40625q0 -2.34375 -1.078125 -3.5q-1.0625 -1.15625 -3.59375 -1.15625q-2.078125 0 -3.453125 1.234375q-1.359375 1.234375 -1.578125 3.34375l0 14.484375l-3.765625 0l0 -14.3125q0 -4.75 -4.65625 -4.75q-3.671875 0 -5.0312424 3.125l0 15.9375l-3.71875 0l0 -21.828125l3.53125 0zm51.144524 11.15625q0 4.984375 -2.28125 8.03125q-2.28125 3.046875 -6.171875 3.046875q-3.96875 0 -6.25 -2.53125l0 10.515625l-3.734375 0l0 -30.21875l3.40625 0l0.1875 2.421875q2.28125 -2.828125 6.328125 -2.828125q3.9375 0 6.21875 2.96875q2.296875 2.953125 2.296875 8.25l0 0.34375zm-3.734375 -0.421875q0 -3.703125 -1.578125 -5.828125q-1.5625 -2.140625 -4.3125 -2.140625q-3.390625 0 -5.078125 3.0l0 10.4375q1.671875 2.984375 5.125 2.984375q2.6875 0 4.265625 -2.125q1.578125 -2.140625 1.578125 -6.328125zm12.530289 11.09375l-3.734375 0l0 -21.828125l3.734375 0l0 21.828125zm-4.03125 -27.625q0 -0.90625 0.546875 -1.53125q0.5625 -0.625 1.65625 -0.625q1.09375 0 1.65625 0.625q0.5625 0.625 0.5625 1.53125q0 0.90625 -0.5625 1.515625q-0.5625 0.609375 -1.65625 0.609375q-1.09375 0 -1.65625 -0.609375q-0.546875 -0.609375 -0.546875 -1.515625zm13.544968 5.796875l0.125 2.734375q2.5 -3.140625 6.53125 -3.140625q6.921875 0 6.984375 7.8125l0 14.421875l-3.734375 0l0 -14.453125q-0.015625 -2.359375 -1.078125 -3.484375q-1.0625 -1.125 -3.296875 -1.125q-1.828125 0 -3.203125 0.96875q-1.359375 0.96875 -2.125 2.53125l0 15.5625l-3.734375 0l0 -21.828125l3.53125 0zm18.38124 10.734375q0 -5.109375 2.359375 -8.125q2.359375 -3.015625 6.25 -3.015625q4.0 0 6.25 2.828125l0.171875 -2.421875l3.40625 0l0 21.296875q0 4.25 -2.515625 6.6875q-2.5 2.4375 -6.734375 2.4375q-2.359375 0 -4.625 -1.015625q-2.265625 -1.0 -3.453125 -2.75l1.9375 -2.25q2.40625 2.96875 5.875 2.96875q2.71875 0 4.234375 -1.53125q1.53125 -1.53125 1.53125 -4.3125l0 -1.875q-2.234375 2.578125 -6.109375 2.578125q-3.84375 0 -6.21875 -3.078125q-2.359375 -3.09375 -2.359375 -8.421875zm3.75 0.421875q0 3.6875 1.515625 5.796875q1.515625 2.109375 4.234375 2.109375q3.53125 0 5.1875 -3.203125l0 -9.96875q-1.71875 -3.125 -5.140625 -3.125q-2.71875 0 -4.265625 2.125q-1.53125 2.109375 -1.53125 6.265625zm34.60518 10.671875l-3.734375 0l0 -21.828125l3.734375 0l0 21.828125zm-4.03125 -27.625q0 -0.90625 0.546875 -1.53125q0.5625 -0.625 1.65625 -0.625q1.09375 0 1.65625 0.625q0.5625 0.625 0.5625 1.53125q0 0.90625 -0.5625 1.515625q-0.5625 0.609375 -1.65625 0.609375q-1.09375 0 -1.65625 -0.609375q-0.546875 -0.609375 -0.546875 -1.515625zm13.544968 5.796875l0.125 2.734375q2.5 -3.140625 6.53125 -3.140625q6.921875 0 6.984375 7.8125l0 14.421875l-3.734375 0l0 -14.453125q-0.015625 -2.359375 -1.078125 -3.484375q-1.0625 -1.125 -3.296875 -1.125q-1.828125 0 -3.203125 0.96875q-1.359375 0.96875 -2.125 2.53125l0 15.5625l-3.734375 0l0 -21.828125l3.53125 0zm24.33435 -5.296875l0 5.296875l4.078125 0l0 2.875l-4.078125 0l0 13.546875q0 1.3125 0.546875 1.96875q0.546875 0.65625 1.859375 0.65625q0.640625 0 1.765625 -0.25l0 3.03125q-1.46875 0.40625 -2.859375 0.40625q-2.5 0 -3.78125 -1.515625q-1.265625 -1.515625 -1.265625 -4.296875l0 -13.546875l-3.96875 0l0 -2.875l3.96875 0l0 -5.296875l3.734375 0zm7.0497437 16.0q0 -3.203125 1.25 -5.765625q1.265625 -2.5625 3.515625 -3.953125q2.25 -1.390625 5.140625 -1.390625q4.453125 0 7.203125 3.09375q2.765625 3.078125 2.765625 8.203125l0 0.265625q0 3.1875 -1.234375 5.71875q-1.21875 2.53125 -3.484375 3.953125q-2.265625 1.40625 -5.21875 1.40625q-4.4375 0 -7.1875 -3.078125q-2.75 -3.09375 -2.75 -8.1875l0 -0.265625zm3.75 0.453125q0 3.625 1.671875 5.828125q1.6875 2.203125 4.515625 2.203125q2.84375 0 4.515625 -2.234375q1.6875 -2.234375 1.6875 -6.25q0 -3.59375 -1.71875 -5.8125q-1.703125 -2.234375 -4.515625 -2.234375q-2.765625 0 -4.46875 2.203125q-1.6875 2.203125 -1.6875 6.296875zm40.09796 11.078125q-4.4375 0 -7.234375 -2.90625q-2.78125 -2.921875 -2.78125 -7.8125l0 -0.6875q0 -3.25 1.234375 -5.796875q1.25 -2.5625 3.46875 -4.0q2.234375 -1.4375 4.84375 -1.4375q4.25 0 6.609375 2.8125q2.375 2.796875 2.375 8.015625l0 1.5625l-14.796875 0q0.078125 3.21875 1.875 5.21875q1.8125 1.984375 4.609375 1.984375q1.96875 0 3.34375 -0.8125q1.375 -0.8125 2.40625 -2.140625l2.28125 1.78125q-2.75 4.21875 -8.234375 4.21875zm-0.46875 -19.578125q-2.265625 0 -3.796875 1.65625q-1.53125 1.640625 -1.890625 4.59375l10.9375 0l0 -0.28125q-0.171875 -2.84375 -1.546875 -4.40625q-1.359375 -1.5625 -3.703125 -1.5625zm17.348175 19.171875l-3.734375 0l0 -21.828125l3.734375 0l0 21.828125zm-4.03125 -27.625q0 -0.90625 0.546875 -1.53125q0.5625 -0.625 1.65625 -0.625q1.09375 0 1.65625 0.625q0.5625 0.625 0.5625 1.53125q0 0.90625 -0.5625 1.515625q-0.5625 0.609375 -1.65625 0.609375q-1.09375 0 -1.65625 -0.609375q-0.546875 -0.609375 -0.546875 -1.515625zm15.076202 0.5l0 5.296875l4.078125 0l0 2.875l-4.078125 0l0 13.546875q0 1.3125 0.546875 1.96875q0.546875 0.65625 1.859375 0.65625q0.640625 0 1.765625 -0.25l0 3.03125q-1.46875 0.40625 -2.859375 0.40625q-2.5 0 -3.78125 -1.515625q-1.265625 -1.515625 -1.265625 -4.296875l0 -13.546875l-3.96875 0l0 -2.875l3.96875 0l0 -5.296875l3.734375 0zm12.172119 7.9375q2.484375 -3.046875 6.453125 -3.046875q6.921875 0 6.984375 7.8125l0 14.421875l-3.734375 0l0 -14.453125q-0.015625 -2.359375 -1.078125 -3.484375q-1.0625 -1.125 -3.296875 -1.125q-1.828125 0 -3.203125 0.96875q-1.359375 0.96875 -2.125 2.53125l0 15.5625l-3.734375 0l0 -31.0l3.734375 0l0 11.8125zm28.090881 19.59375q-4.4375 0 -7.234375 -2.90625q-2.78125 -2.921875 -2.78125 -7.8125l0 -0.6875q0 -3.25 1.234375 -5.796875q1.25 -2.5625 3.46875 -4.0q2.234375 -1.4375 4.84375 -1.4375q4.25 0 6.609375 2.8125q2.375 2.796875 2.375 8.015625l0 1.5625l-14.796875 0q0.078125 3.21875 1.875 5.21875q1.8125 1.984375 4.609375 1.984375q1.96875 0 3.34375 -0.8125q1.375 -0.8125 2.40625 -2.140625l2.28125 1.78125q-2.75 4.21875 -8.234375 4.21875zm-0.46875 -19.578125q-2.265625 0 -3.796875 1.65625q-1.53125 1.640625 -1.890625 4.59375l10.9375 0l0 -0.28125q-0.171875 -2.84375 -1.546875 -4.40625q-1.359375 -1.5625 -3.703125 -1.5625zm23.848145 0.6875q-0.84375 -0.140625 -1.828125 -0.140625q-3.671875 0 -4.984375 3.125l0 15.5l-3.734375 0l0 -21.828125l3.625 0l0.0625 2.515625q1.84375 -2.921875 5.203125 -2.921875q1.09375 0 1.65625 0.28125l0 3.46875zm26.371948 12.6875q0 -1.515625 -1.140625 -2.34375q-1.125 -0.84375 -3.96875 -1.4375q-2.828125 -0.609375 -4.5 -1.453125q-1.65625 -0.859375 -2.46875 -2.03125q-0.796875 -1.171875 -0.796875 -2.78125q0 -2.6875 2.265625 -4.53125q2.28125 -1.859375 5.8125 -1.859375q3.71875 0 6.015625 1.921875q2.3125 1.90625 2.3125 4.890625l-3.75 0q0 -1.53125 -1.296875 -2.640625q-1.296875 -1.109375 -3.28125 -1.109375q-2.03125 0 -3.1875 0.890625q-1.15625 0.890625 -1.15625 2.3125q0 1.359375 1.0625 2.046875q1.078125 0.6875 3.875 1.3125q2.796875 0.625 4.53125 1.5q1.734375 0.859375 2.5625 2.078125q0.84375 1.21875 0.84375 2.984375q0 2.921875 -2.34375 4.6875q-2.328125 1.765625 -6.0625 1.765625q-2.625 0 -4.640625 -0.921875q-2.015625 -0.9375 -3.15625 -2.59375q-1.140625 -1.671875 -1.140625 -3.609375l3.734375 0q0.09375 1.875 1.5 2.984375q1.40625 1.09375 3.703125 1.09375q2.109375 0 3.390625 -0.859375q1.28125 -0.859375 1.28125 -2.296875zm12.137939 -16.03125l0.125 2.734375q2.5 -3.140625 6.53125 -3.140625q6.921875 0 6.984375 7.8125l0 14.421875l-3.734375 0l0 -14.453125q-0.015625 -2.359375 -1.078125 -3.484375q-1.0625 -1.125 -3.296875 -1.125q-1.828125 0 -3.203125 0.96875q-1.359375 0.96875 -2.125 2.53125l0 15.5625l-3.734375 0l0 -21.828125l3.53125 0zm32.756226 21.828125q-0.328125 -0.640625 -0.53125 -2.296875q-2.609375 2.703125 -6.21875 2.703125q-3.21875 0 -5.296875 -1.828125q-2.0625 -1.828125 -2.0625 -4.625q0 -3.421875 2.59375 -5.296875q2.59375 -1.890625 7.296875 -1.890625l3.625 0l0 -1.71875q0 -1.953125 -1.171875 -3.109375q-1.171875 -1.171875 -3.453125 -1.171875q-2.0 0 -3.359375 1.015625q-1.34375 1.0 -1.34375 2.4375l-3.75 0q0 -1.640625 1.15625 -3.15625q1.171875 -1.53125 3.15625 -2.40625q1.984375 -0.890625 4.375 -0.890625q3.765625 0 5.90625 1.890625q2.140625 1.875 2.21875 5.1875l0 10.046875q0 3.015625 0.765625 4.78125l0 0.328125l-3.90625 0zm-6.203125 -2.84375q1.75 0 3.328125 -0.90625q1.578125 -0.90625 2.28125 -2.359375l0 -4.484375l-2.921875 0q-6.859375 0 -6.859375 4.015625q0 1.75 1.171875 2.75q1.171875 0.984375 3.0 0.984375zm21.292725 -7.265625l-2.34375 2.4375l0 7.671875l-3.734375 0l0 -31.0l3.734375 0l0 18.75l2.0 -2.40625l6.796875 -7.171875l4.546875 0l-8.5 9.109375l9.484375 12.71875l-4.375 0l-7.609375 -10.109375zm23.511719 10.515625q-4.4375 0 -7.234375 -2.90625q-2.78125 -2.921875 -2.78125 -7.8125l0 -0.6875q0 -3.25 1.234375 -5.796875q1.25 -2.5625 3.46875 -4.0q2.234375 -1.4375 4.84375 -1.4375q4.25 0 6.609375 2.8125q2.375 2.796875 2.375 8.015625l0 1.5625l-14.796875 0q0.078125 3.21875 1.875 5.21875q1.8125 1.984375 4.609375 1.984375q1.96875 0 3.34375 -0.8125q1.375 -0.8125 2.40625 -2.140625l2.28125 1.78125q-2.75 4.21875 -8.234375 4.21875zm-0.46875 -19.578125q-2.265625 0 -3.796875 1.65625q-1.53125 1.640625 -1.890625 4.59375l10.9375 0l0 -0.28125q-0.171875 -2.84375 -1.546875 -4.40625q-1.359375 -1.5625 -3.703125 -1.5625zm11.9522705 -1.9375l-2.125 -1.453125q1.875 -2.625 1.9375 -5.53125l0 -2.90625l3.6875 0l0 2.625q-0.015625 2.015625 -1.0 4.03125q-0.96875 2.0 -2.5 3.234375zm18.430664 15.3125q0 -1.515625 -1.140625 -2.34375q-1.125 -0.84375 -3.96875 -1.4375q-2.828125 -0.609375 -4.5 -1.453125q-1.65625 -0.859375 -2.46875 -2.03125q-0.796875 -1.171875 -0.796875 -2.78125q0 -2.6875 2.265625 -4.53125q2.28125 -1.859375 5.8125 -1.859375q3.71875 0 6.015625 1.921875q2.3125 1.90625 2.3125 4.890625l-3.75 0q0 -1.53125 -1.296875 -2.640625q-1.296875 -1.109375 -3.28125 -1.109375q-2.03125 0 -3.1875 0.890625q-1.15625 0.890625 -1.15625 2.3125q0 1.359375 1.0625 2.046875q1.078125 0.6875 3.875 1.3125q2.796875 0.625 4.53125 1.5q1.734375 0.859375 2.5625 2.078125q0.84375 1.21875 0.84375 2.984375q0 2.921875 -2.34375 4.6875q-2.328125 1.765625 -6.0625 1.765625q-2.625 0 -4.640625 -0.921875q-2.015625 -0.9375 -3.15625 -2.59375q-1.140625 -1.671875 -1.140625 -3.609375l3.734375 0q0.09375 1.875 1.5 2.984375q1.40625 1.09375 3.703125 1.09375q2.109375 0 3.390625 -0.859375q1.28125 -0.859375 1.28125 -2.296875zm37.322144 -4.875q0 5.0 -2.3125 8.046875q-2.296875 3.03125 -6.171875 3.03125q-4.125 0 -6.390625 -2.921875l-0.1875 2.515625l-3.421875 0l0 -31.0l3.734375 0l0 11.5625q2.25 -2.796875 6.21875 -2.796875q3.984375 0 6.25 3.015625q2.28125 3.0 2.28125 8.21875l0 0.328125zm-3.734375 -0.421875q0 -3.8125 -1.484375 -5.890625q-1.46875 -2.078125 -4.234375 -2.078125q-3.6875 0 -5.296875 3.421875l0 9.453125q1.71875 3.421875 5.34375 3.421875q2.6875 0 4.171875 -2.078125q1.5 -2.078125 1.5 -6.25zm7.4521484 -0.03125q0 -3.203125 1.25 -5.765625q1.265625 -2.5625 3.515625 -3.953125q2.25 -1.390625 5.140625 -1.390625q4.453125 0 7.203125 3.09375q2.765625 3.078125 2.765625 8.203125l0 0.265625q0 3.1875 -1.234375 5.71875q-1.21875 2.53125 -3.484375 3.953125q-2.265625 1.40625 -5.21875 1.40625q-4.4375 0 -7.1875 -3.078125q-2.75 -3.09375 -2.75 -8.1875l0 -0.265625zm3.75 0.453125q0 3.625 1.671875 5.828125q1.6875 2.203125 4.515625 2.203125q2.84375 0 4.515625 -2.234375q1.6875 -2.234375 1.6875 -6.25q0 -3.59375 -1.71875 -5.8125q-1.703125 -2.234375 -4.515625 -2.234375q-2.765625 0 -4.46875 2.203125q-1.6875 2.203125 -1.6875 6.296875zm19.898071 -0.421875q0 -5.03125 2.375 -8.078125q2.375 -3.0625 6.234375 -3.0625q3.84375 0 6.078125 2.625l0 -11.390625l3.734375 0l0 31.0l-3.4375 0l-0.171875 -2.34375q-2.25 2.75 -6.234375 2.75q-3.796875 0 -6.1875 -3.109375q-2.390625 -3.109375 -2.390625 -8.109375l0 -0.28125zm3.734375 0.421875q0 3.703125 1.53125 5.8125q1.53125 2.09375 4.234375 2.09375q3.546875 0 5.1875 -3.1875l0 -10.03125q-1.671875 -3.078125 -5.140625 -3.078125q-2.75 0 -4.28125 2.125q-1.53125 2.109375 -1.53125 6.265625zm27.620117 5.203125l5.078125 -16.359375l4.0 0l-8.78125 25.203125q-2.03125 5.4375 -6.46875 5.4375l-0.703125 -0.046875l-1.40625 -0.265625l0 -3.03125l1.015625 0.078125q1.890625 0 2.953125 -0.765625q1.0625 -0.765625 1.75 -2.796875l0.828125 -2.21875l-7.796875 -21.59375l4.078125 0l5.453125 16.359375zm41.97284 0.328125l4.203125 -16.6875l3.734375 0l-6.359375 21.828125l-3.03125 0l-5.3125 -16.546875l-5.15625 16.546875l-3.03125 0l-6.328125 -21.828125l3.703125 0l4.296875 16.34375l5.09375 -16.34375l3.0 0l5.1875 16.6875zm15.775391 5.140625l-3.734375 0l0 -21.828125l3.734375 0l0 21.828125zm-4.03125 -27.625q0 -0.90625 0.546875 -1.53125q0.5625 -0.625 1.65625 -0.625q1.09375 0 1.65625 0.625q0.5625 0.625 0.5625 1.53125q0 0.90625 -0.5625 1.515625q-0.5625 0.609375 -1.65625 0.609375q-1.09375 0 -1.65625 -0.609375q-0.546875 -0.609375 -0.546875 -1.515625zm14.060608 27.625l-3.734375 0l0 -31.0l3.734375 0l0 31.0zm10.029358 0l-3.734375 0l0 -31.0l3.734375 0l0 31.0zm22.307373 -10.109375l-2.34375 2.4375l0 7.671875l-3.734375 0l0 -31.0l3.734375 0l0 18.75l2.0 -2.40625l6.796875 -7.171875l4.546875 0l-8.5 9.109375l9.484375 12.71875l-4.375 0l-7.609375 -10.109375zm18.89972 10.109375l-3.734375 0l0 -21.828125l3.734375 0l0 21.828125zm-4.03125 -27.625q0 -0.90625 0.546875 -1.53125q0.5625 -0.625 1.65625 -0.625q1.09375 0 1.65625 0.625q0.5625 0.625 0.5625 1.53125q0 0.90625 -0.5625 1.515625q-0.5625 0.609375 -1.65625 0.609375q-1.09375 0 -1.65625 -0.609375q-0.546875 -0.609375 -0.546875 -1.515625zm14.060608 27.625l-3.734375 0l0 -31.0l3.734375 0l0 31.0zm10.029358 0l-3.734375 0l0 -31.0l3.734375 0l0 31.0zm23.354248 -5.46875l5.078125 -16.359375l4.0 0l-8.78125 25.203125q-2.03125 5.4375 -6.46875 5.4375l-0.703125 -0.046875l-1.40625 -0.265625l0 -3.03125l1.015625 0.078125q1.890625 0 2.953125 -0.765625q1.0625 -0.765625 1.75 -2.796875l0.828125 -2.21875l-7.796875 -21.59375l4.078125 0l5.453125 16.359375zm11.126465 -5.65625q0 -3.203125 1.25 -5.765625q1.265625 -2.5625 3.515625 -3.953125q2.25 -1.390625 5.140625 -1.390625q4.453125 0 7.203125 3.09375q2.765625 3.078125 2.765625 8.203125l0 0.265625q0 3.1875 -1.234375 5.71875q-1.21875 2.53125 -3.484375 3.953125q-2.265625 1.40625 -5.21875 1.40625q-4.4375 0 -7.1875 -3.078125q-2.75 -3.09375 -2.75 -8.1875l0 -0.265625zm3.75 0.453125q0 3.625 1.671875 5.828125q1.6875 2.203125 4.515625 2.203125q2.84375 0 4.515625 -2.234375q1.6875 -2.234375 1.6875 -6.25q0 -3.59375 -1.71875 -5.8125q-1.703125 -2.234375 -4.515625 -2.234375q-2.765625 0 -4.46875 2.203125q-1.6875 2.203125 -1.6875 6.296875zm34.288696 8.515625q-2.1875 2.5625 -6.40625 2.5625q-3.484375 0 -5.3125 -2.03125q-1.828125 -2.03125 -1.84375 -6.0l0 -14.203125l3.734375 0l0 14.09375q0 4.96875 4.03125 4.96875q4.28125 0 5.6875 -3.1875l0 -15.875l3.734375 0l0 21.828125l-3.546875 0l-0.078125 -2.15625z" fill-rule="nonzero"/><path fill="#ffffff" d="m56.35511 290.6998l-9.453125 0l0 26.1875l-3.859375 0l0 -26.1875l-9.421875 0l0 -3.1875l22.734375 0l0 3.1875zm0.78660583 15.0625q0 -3.203125 1.25 -5.765625q1.265625 -2.5625 3.515625 -3.953125q2.25 -1.390625 5.140625 -1.390625q4.453125 0 7.203125 3.09375q2.765625 3.078125 2.765625 8.203125l0 0.265625q0 3.1875 -1.234375 5.71875q-1.21875 2.53125 -3.484375 3.953125q-2.265625 1.40625 -5.21875 1.40625q-4.4375 0 -7.1875 -3.078125q-2.75 -3.09375 -2.75 -8.1875l0 -0.265625zm3.75 0.453125q0 3.625 1.671875 5.828125q1.6875 2.203125 4.515625 2.203125q2.84375 0 4.515625 -2.234375q1.6875 -2.234375 1.6875 -6.25q0 -3.59375 -1.71875 -5.8125q-1.703125 -2.234375 -4.515625 -2.234375q-2.765625 0 -4.46875 2.203125q-1.6875 2.203125 -1.6875 6.296875zm50.363586 5.53125l4.203125 -16.6875l3.734375 0l-6.359375 21.828125l-3.03125 0l-5.3125 -16.546875l-5.15625 16.546875l-3.03125 0l-6.328125 -21.828125l3.703125 0l4.296875 16.34375l5.09375 -16.34375l3.0 0l5.1875 16.6875zm15.775391 5.140625l-3.734375 0l0 -21.828125l3.734375 0l0 21.828125zm-4.03125 -27.625q0 -0.90625 0.546875 -1.53125q0.5625 -0.625 1.65625 -0.625q1.09375 0 1.65625 0.625q0.5625 0.625 0.5625 1.53125q0 0.90625 -0.5625 1.515625q-0.5625 0.609375 -1.65625 0.609375q-1.09375 0 -1.65625 -0.609375q-0.546875 -0.609375 -0.546875 -1.515625zm13.54496 5.796875l0.125 2.734375q2.5 -3.140625 6.53125 -3.140625q6.921875 0 6.984375 7.8125l0 14.421875l-3.734375 0l0 -14.453125q-0.015625 -2.359375 -1.078125 -3.484375q-1.0625 -1.125 -3.296875 -1.125q-1.828125 0 -3.203125 0.96875q-1.359375 0.96875 -2.125 2.53125l0 15.5625l-3.734375 0l0 -21.828125l3.53125 0zm19.146866 27.6875l-2.125 -1.453125q1.90625 -2.65625 1.984375 -5.453125l0 -3.375l3.65625 0l0 2.921875q0 2.046875 -1.0 4.078125q-1.0 2.046875 -2.515625 3.28125zm17.56215 -16.953125q0 -5.03125 2.375 -8.078125q2.375 -3.0625 6.234375 -3.0625q3.84375 0 6.078125 2.625l0 -11.390625l3.734375 0l0 31.0l-3.4375 0l-0.171875 -2.34375q-2.25 2.75 -6.234375 2.75q-3.796875 0 -6.1875 -3.109375q-2.390625 -3.109375 -2.390625 -8.109375l0 -0.28125zm3.734375 0.421875q0 3.703125 1.53125 5.8125q1.53125 2.09375 4.234375 2.09375q3.546875 0 5.1875 -3.1875l0 -10.03125q-1.671875 -3.078125 -5.140625 -3.078125q-2.75 0 -4.28125 2.125q-1.53125 2.109375 -1.53125 6.265625zm29.541992 11.078125q-4.4375 0 -7.234375 -2.90625q-2.78125 -2.921875 -2.78125 -7.8125l0 -0.6875q0 -3.25 1.234375 -5.796875q1.25 -2.5625 3.46875 -4.0q2.234375 -1.4375 4.84375 -1.4375q4.25 0 6.609375 2.8125q2.375 2.796875 2.375 8.015625l0 1.5625l-14.796875 0q0.078125 3.21875 1.875 5.21875q1.8125 1.984375 4.609375 1.984375q1.96875 0 3.34375 -0.8125q1.375 -0.8125 2.40625 -2.140625l2.28125 1.78125q-2.75 4.21875 -8.234375 4.21875zm-0.46875 -19.578125q-2.265625 0 -3.796875 1.65625q-1.53125 1.640625 -1.890625 4.59375l10.9375 0l0 -0.28125q-0.171875 -2.84375 -1.546875 -4.40625q-1.359375 -1.5625 -3.703125 -1.5625zm15.12941 19.171875l0 -18.953125l-3.453125 0l0 -2.875l3.453125 0l0 -2.25q0 -3.5 1.875 -5.421875q1.890625 -1.921875 5.3125 -1.921875q1.296875 0 2.5625 0.34375l-0.203125 3.03125q-0.9375 -0.1875 -2.015625 -0.1875q-1.8125 0 -2.8125 1.0625q-0.984375 1.0625 -0.984375 3.03125l0 2.3125l4.671875 0l0 2.875l-4.671875 0l0 18.953125l-3.734375 0zm21.097809 0.40625q-4.4375 0 -7.234375 -2.90625q-2.78125 -2.921875 -2.78125 -7.8125l0 -0.6875q0 -3.25 1.234375 -5.796875q1.25 -2.5625 3.46875 -4.0q2.234375 -1.4375 4.84375 -1.4375q4.25 0 6.609375 2.8125q2.375 2.796875 2.375 8.015625l0 1.5625l-14.796875 0q0.078125 3.21875 1.875 5.21875q1.8125 1.984375 4.609375 1.984375q1.96875 0 3.34375 -0.8125q1.375 -0.8125 2.40625 -2.140625l2.28125 1.78125q-2.75 4.21875 -8.234375 4.21875zm-0.46875 -19.578125q-2.265625 0 -3.796875 1.65625q-1.53125 1.640625 -1.890625 4.59375l10.9375 0l0 -0.28125q-0.171875 -2.84375 -1.546875 -4.40625q-1.359375 -1.5625 -3.703125 -1.5625zm26.78566 19.171875q-0.328125 -0.640625 -0.53125 -2.296875q-2.609375 2.703125 -6.21875 2.703125q-3.21875 0 -5.296875 -1.828125q-2.0625 -1.828125 -2.0625 -4.625q0 -3.421875 2.59375 -5.296875q2.59375 -1.890625 7.296875 -1.890625l3.625 0l0 -1.71875q0 -1.953125 -1.171875 -3.109375q-1.171875 -1.171875 -3.453125 -1.171875q-2.0 0 -3.359375 1.015625q-1.34375 1.0 -1.34375 2.4375l-3.75 0q0 -1.640625 1.15625 -3.15625q1.171875 -1.53125 3.15625 -2.40625q1.984375 -0.890625 4.375 -0.890625q3.765625 0 5.90625 1.890625q2.140625 1.875 2.21875 5.1875l0 10.046875q0 3.015625 0.765625 4.78125l0 0.328125l-3.90625 0zm-6.203125 -2.84375q1.75 0 3.328125 -0.90625q1.578125 -0.90625 2.28125 -2.359375l0 -4.484375l-2.921875 0q-6.859375 0 -6.859375 4.015625q0 1.75 1.171875 2.75q1.171875 0.984375 3.0 0.984375zm20.261475 -24.28125l0 5.296875l4.078125 0l0 2.875l-4.078125 0l0 13.546875q0 1.3125 0.546875 1.96875q0.546875 0.65625 1.859375 0.65625q0.640625 0 1.765625 -0.25l0 3.03125q-1.46875 0.40625 -2.859375 0.40625q-2.5 0 -3.78125 -1.515625q-1.265625 -1.515625 -1.265625 -4.296875l0 -13.546875l-3.9687195 0l0 -2.875l3.9687195 0l0 -5.296875l3.734375 0zm23.731415 0l0 5.296875l4.078125 0l0 2.875l-4.078125 0l0 13.546875q0 1.3125 0.546875 1.96875q0.546875 0.65625 1.859375 0.65625q0.640625 0 1.765625 -0.25l0 3.03125q-1.46875 0.40625 -2.859375 0.40625q-2.5 0 -3.78125 -1.515625q-1.265625 -1.515625 -1.265625 -4.296875l0 -13.546875l-3.96875 0l0 -2.875l3.96875 0l0 -5.296875l3.734375 0zm12.17215 7.9375q2.484375 -3.046875 6.453125 -3.046875q6.921875 0 6.984375 7.8125l0 14.421875l-3.734375 0l0 -14.453125q-0.015625 -2.359375 -1.078125 -3.484375q-1.0625 -1.125 -3.296875 -1.125q-1.828125 0 -3.203125 0.96875q-1.359375 0.96875 -2.125 2.53125l0 15.5625l-3.734375 0l0 -31.0l3.734375 0l0 11.8125zm28.090881 19.59375q-4.4375 0 -7.234375 -2.90625q-2.78125 -2.921875 -2.78125 -7.8125l0 -0.6875q0 -3.25 1.234375 -5.796875q1.25 -2.5625 3.46875 -4.0q2.234375 -1.4375 4.84375 -1.4375q4.25 0 6.609375 2.8125q2.375 2.796875 2.375 8.015625l0 1.5625l-14.796875 0q0.078125 3.21875 1.875 5.21875q1.8125 1.984375 4.609375 1.984375q1.96875 0 3.34375 -0.8125q1.375 -0.8125 2.40625 -2.140625l2.28125 1.78125q-2.75 4.21875 -8.234375 4.21875zm-0.46875 -19.578125q-2.265625 0 -3.796875 1.65625q-1.53125 1.640625 -1.890625 4.59375l10.9375 0l0 -0.28125q-0.171875 -2.84375 -1.546875 -4.40625q-1.359375 -1.5625 -3.703125 -1.5625zm22.548035 8.046875q0 -3.203125 1.25 -5.765625q1.265625 -2.5625 3.515625 -3.953125q2.25 -1.390625 5.140625 -1.390625q4.453125 0 7.203125 3.09375q2.765625 3.078125 2.765625 8.203125l0 0.265625q0 3.1875 -1.234375 5.71875q-1.21875 2.53125 -3.484375 3.953125q-2.265625 1.40625 -5.21875 1.40625q-4.4375 0 -7.1875 -3.078125q-2.75 -3.09375 -2.75 -8.1875l0 -0.265625zm3.75 0.453125q0 3.625 1.671875 5.828125q1.6875 2.203125 4.515625 2.203125q2.84375 0 4.515625 -2.234375q1.6875 -2.234375 1.6875 -6.25q0 -3.59375 -1.71875 -5.8125q-1.703125 -2.234375 -4.515625 -2.234375q-2.765625 0 -4.46875 2.203125q-1.6875 2.203125 -1.6875 6.296875zm25.866821 -16.453125l0 5.296875l4.078125 0l0 2.875l-4.078125 0l0 13.546875q0 1.3125 0.546875 1.96875q0.546875 0.65625 1.859375 0.65625q0.640625 0 1.765625 -0.25l0 3.03125q-1.46875 0.40625 -2.859375 0.40625q-2.5 0 -3.78125 -1.515625q-1.265625 -1.515625 -1.265625 -4.296875l0 -13.546875l-3.96875 0l0 -2.875l3.96875 0l0 -5.296875l3.734375 0zm12.172119 7.9375q2.484375 -3.046875 6.453125 -3.046875q6.921875 0 6.984375 7.8125l0 14.421875l-3.734375 0l0 -14.453125q-0.015625 -2.359375 -1.078125 -3.484375q-1.0625 -1.125 -3.296875 -1.125q-1.828125 0 -3.203125 0.96875q-1.359375 0.96875 -2.125 2.53125l0 15.5625l-3.734375 0l0 -31.0l3.734375 0l0 11.8125zm28.090881 19.59375q-4.4375 0 -7.234375 -2.90625q-2.78125 -2.921875 -2.78125 -7.8125l0 -0.6875q0 -3.25 1.234375 -5.796875q1.25 -2.5625 3.46875 -4.0q2.234375 -1.4375 4.84375 -1.4375q4.25 0 6.609375 2.8125q2.375 2.796875 2.375 8.015625l0 1.5625l-14.796875 0q0.078125 3.21875 1.875 5.21875q1.8125 1.984375 4.609375 1.984375q1.96875 0 3.34375 -0.8125q1.375 -0.8125 2.40625 -2.140625l2.28125 1.78125q-2.75 4.21875 -8.234375 4.21875zm-0.46875 -19.578125q-2.265625 0 -3.796875 1.65625q-1.53125 1.640625 -1.890625 4.59375l10.9375 0l0 -0.28125q-0.171875 -2.84375 -1.546875 -4.40625q-1.359375 -1.5625 -3.703125 -1.5625zm23.848145 0.6875q-0.84375 -0.140625 -1.828125 -0.140625q-3.671875 0 -4.984375 3.125l0 15.5l-3.734375 0l0 -21.828125l3.625 0l0.0625 2.515625q1.84375 -2.921875 5.203125 -2.921875q1.09375 0 1.65625 0.28125l0 3.46875zm26.371948 12.6875q0 -1.515625 -1.140625 -2.34375q-1.125 -0.84375 -3.96875 -1.4375q-2.828125 -0.609375 -4.5 -1.453125q-1.65625 -0.859375 -2.46875 -2.03125q-0.796875 -1.171875 -0.796875 -2.78125q0 -2.6875 2.265625 -4.53125q2.28125 -1.859375 5.8125 -1.859375q3.71875 0 6.015625 1.921875q2.3125 1.90625 2.3125 4.890625l-3.75 0q0 -1.53125 -1.296875 -2.640625q-1.296875 -1.109375 -3.28125 -1.109375q-2.03125 0 -3.1875 0.890625q-1.15625 0.890625 -1.15625 2.3125q0 1.359375 1.0625 2.046875q1.078125 0.6875 3.875 1.3125q2.796875 0.625 4.53125 1.5q1.734375 0.859375 2.5625 2.078125q0.84375 1.21875 0.84375 2.984375q0 2.921875 -2.34375 4.6875q-2.328125 1.765625 -6.0625 1.765625q-2.625 0 -4.640625 -0.921875q-2.015625 -0.9375 -3.15625 -2.59375q-1.140625 -1.671875 -1.140625 -3.609375l3.734375 0q0.09375 1.875 1.5 2.984375q1.40625 1.09375 3.703125 1.09375q2.109375 0 3.390625 -0.859375q1.28125 -0.859375 1.28125 -2.296875zm12.137939 -16.03125l0.125 2.734375q2.5 -3.140625 6.53125 -3.140625q6.921875 0 6.984375 7.8125l0 14.421875l-3.734375 0l0 -14.453125q-0.015625 -2.359375 -1.078125 -3.484375q-1.0625 -1.125 -3.296875 -1.125q-1.828125 0 -3.203125 0.96875q-1.359375 0.96875 -2.125 2.53125l0 15.5625l-3.734375 0l0 -21.828125l3.53125 0zm32.756226 21.828125q-0.328125 -0.640625 -0.53125 -2.296875q-2.609375 2.703125 -6.21875 2.703125q-3.21875 0 -5.296875 -1.828125q-2.0625 -1.828125 -2.0625 -4.625q0 -3.421875 2.59375 -5.296875q2.59375 -1.890625 7.296875 -1.890625l3.625 0l0 -1.71875q0 -1.953125 -1.171875 -3.109375q-1.171875 -1.171875 -3.453125 -1.171875q-2.0 0 -3.359375 1.015625q-1.34375 1.0 -1.34375 2.4375l-3.75 0q0 -1.640625 1.15625 -3.15625q1.171875 -1.53125 3.15625 -2.40625q1.984375 -0.890625 4.375 -0.890625q3.765625 0 5.90625 1.890625q2.140625 1.875 2.21875 5.1875l0 10.046875q0 3.015625 0.765625 4.78125l0 0.328125l-3.90625 0zm-6.203125 -2.84375q1.75 0 3.328125 -0.90625q1.578125 -0.90625 2.28125 -2.359375l0 -4.484375l-2.921875 0q-6.859375 0 -6.859375 4.015625q0 1.75 1.171875 2.75q1.171875 0.984375 3.0 0.984375zm21.292725 -7.265625l-2.34375 2.4375l0 7.671875l-3.734375 0l0 -31.0l3.734375 0l0 18.75l2.0 -2.40625l6.796875 -7.171875l4.546875 0l-8.5 9.109375l9.484375 12.71875l-4.375 0l-7.609375 -10.109375zm23.511719 10.515625q-4.4375 0 -7.234375 -2.90625q-2.78125 -2.921875 -2.78125 -7.8125l0 -0.6875q0 -3.25 1.234375 -5.796875q1.25 -2.5625 3.46875 -4.0q2.234375 -1.4375 4.84375 -1.4375q4.25 0 6.609375 2.8125q2.375 2.796875 2.375 8.015625l0 1.5625l-14.796875 0q0.078125 3.21875 1.875 5.21875q1.8125 1.984375 4.609375 1.984375q1.96875 0 3.34375 -0.8125q1.375 -0.8125 2.40625 -2.140625l2.28125 1.78125q-2.75 4.21875 -8.234375 4.21875zm-0.46875 -19.578125q-2.265625 0 -3.796875 1.65625q-1.53125 1.640625 -1.890625 4.59375l10.9375 0l0 -0.28125q-0.171875 -2.84375 -1.546875 -4.40625q-1.359375 -1.5625 -3.703125 -1.5625zm22.548035 8.046875q0 -3.203125 1.25 -5.765625q1.265625 -2.5625 3.515625 -3.953125q2.25 -1.390625 5.140625 -1.390625q4.453125 0 7.203125 3.09375q2.765625 3.078125 2.765625 8.203125l0 0.265625q0 3.1875 -1.234375 5.71875q-1.21875 2.53125 -3.484375 3.953125q-2.265625 1.40625 -5.21875 1.40625q-4.4375 0 -7.1875 -3.078125q-2.75 -3.09375 -2.75 -8.1875l0 -0.265625zm3.75 0.453125q0 3.625 1.671875 5.828125q1.6875 2.203125 4.515625 2.203125q2.84375 0 4.515625 -2.234375q1.6875 -2.234375 1.6875 -6.25q0 -3.59375 -1.71875 -5.8125q-1.703125 -2.234375 -4.515625 -2.234375q-2.765625 0 -4.46875 2.203125q-1.6875 2.203125 -1.6875 6.296875zm31.351196 -7.8125q-0.84375 -0.140625 -1.828125 -0.140625q-3.671875 0 -4.984375 3.125l0 15.5l-3.734375 0l0 -21.828125l3.625 0l0.0625 2.515625q1.84375 -2.921875 5.203125 -2.921875q1.09375 0 1.65625 0.28125l0 3.46875zm24.215698 0q-0.84375 -0.140625 -1.828125 -0.140625q-3.671875 0 -4.984375 3.125l0 15.5l-3.734375 0l0 -21.828125l3.625 0l0.0625 2.515625q1.84375 -2.921875 5.203125 -2.921875q1.09375 0 1.65625 0.28125l0 3.46875zm12.11676 18.890625q-4.4375 0 -7.234375 -2.90625q-2.78125 -2.921875 -2.78125 -7.8125l0 -0.6875q0 -3.25 1.234375 -5.796875q1.25 -2.5625 3.46875 -4.0q2.234375 -1.4375 4.84375 -1.4375q4.25 0 6.609375 2.8125q2.375 2.796875 2.375 8.015625l0 1.5625l-14.796875 0q0.078125 3.21875 1.875 5.21875q1.8125 1.984375 4.609375 1.984375q1.96875 0 3.34375 -0.8125q1.375 -0.8125 2.40625 -2.140625l2.28125 1.78125q-2.75 4.21875 -8.234375 4.21875zm-0.46875 -19.578125q-2.265625 0 -3.796875 1.65625q-1.53125 1.640625 -1.890625 4.59375l10.9375 0l0 -0.28125q-0.171875 -2.84375 -1.546875 -4.40625q-1.359375 -1.5625 -3.703125 -1.5625zm26.785645 19.171875q-0.328125 -0.640625 -0.53125 -2.296875q-2.609375 2.703125 -6.21875 2.703125q-3.21875 0 -5.296875 -1.828125q-2.0625 -1.828125 -2.0625 -4.625q0 -3.421875 2.59375 -5.296875q2.59375 -1.890625 7.296875 -1.890625l3.625 0l0 -1.71875q0 -1.953125 -1.171875 -3.109375q-1.171875 -1.171875 -3.453125 -1.171875q-2.0 0 -3.359375 1.015625q-1.34375 1.0 -1.34375 2.4375l-3.75 0q0 -1.640625 1.15625 -3.15625q1.171875 -1.53125 3.15625 -2.40625q1.984375 -0.890625 4.375 -0.890625q3.765625 0 5.90625 1.890625q2.140625 1.875 2.21875 5.1875l0 10.046875q0 3.015625 0.765625 4.78125l0 0.328125l-3.90625 0zm-6.203125 -2.84375q1.75 0 3.328125 -0.90625q1.578125 -0.90625 2.28125 -2.359375l0 -4.484375l-2.921875 0q-6.859375 0 -6.859375 4.015625q0 1.75 1.171875 2.75q1.171875 0.984375 3.0 0.984375zm23.948975 0.203125q2.0 0 3.484375 -1.203125q1.5 -1.21875 1.671875 -3.03125l3.53125 0q-0.109375 1.875 -1.296875 3.578125q-1.1875 1.6875 -3.1875 2.703125q-1.984375 1.0 -4.203125 1.0q-4.453125 0 -7.09375 -2.96875q-2.625 -2.984375 -2.625 -8.15625l0 -0.625q0 -3.1875 1.171875 -5.671875q1.171875 -2.484375 3.359375 -3.84375q2.1875 -1.375 5.171875 -1.375q3.671875 0 6.09375 2.203125q2.4375 2.1875 2.609375 5.703125l-3.53125 0q-0.171875 -2.125 -1.609375 -3.484375q-1.4375 -1.359375 -3.5625 -1.359375q-2.84375 0 -4.40625 2.046875q-1.5625 2.046875 -1.5625 5.921875l0 0.703125q0 3.78125 1.546875 5.828125q1.5625 2.03125 4.4375 2.03125zm16.617065 -16.546875q2.484375 -3.046875 6.453125 -3.046875q6.921875 0 6.984375 7.8125l0 14.421875l-3.734375 0l0 -14.453125q-0.015625 -2.359375 -1.078125 -3.484375q-1.0625 -1.125 -3.296875 -1.125q-1.828125 0 -3.203125 0.96875q-1.359375 0.96875 -2.125 2.53125l0 15.5625l-3.734375 0l0 -31.0l3.734375 0l0 11.8125zm44.63452 9.3125l4.078125 0l0 3.046875l-4.078125 0l0 6.828125l-3.75 0l0 -6.828125l-13.390625 0l0 -2.1875l13.171875 -20.359375l3.96875 0l0 19.5zm-12.890625 0l9.140625 0l0 -14.40625l-0.453125 0.8125l-8.6875 13.59375zm38.7536 -2.65625q0 6.5625 -2.234375 9.75q-2.234375 3.1875 -7.0 3.1875q-4.703125 0 -6.96875 -3.109375q-2.25 -3.125 -2.328125 -9.328125l0 -4.984375q0 -6.46875 2.234375 -9.609375q2.234375 -3.15625 7.015625 -3.15625q4.75 0 6.984375 3.03125q2.25 3.03125 2.296875 9.375l0 4.84375zm-3.734375 -5.109375q0 -4.734375 -1.328125 -6.90625q-1.328125 -2.171875 -4.21875 -2.171875q-2.859375 0 -4.171875 2.15625q-1.3125 2.15625 -1.359375 6.640625l0 5.96875q0 4.765625 1.375 7.046875q1.390625 2.265625 4.203125 2.265625q2.765625 0 4.109375 -2.140625q1.34375 -2.140625 1.390625 -6.734375l0 -6.125zm37.57849 6.96875q0 4.984375 -2.28125 8.03125q-2.28125 3.046875 -6.171875 3.046875q-3.96875 0 -6.25 -2.53125l0 10.515625l-3.734375 0l0 -30.21875l3.40625 0l0.1875 2.421875q2.28125 -2.828125 6.328125 -2.828125q3.9375 0 6.21875 2.96875q2.296875 2.953125 2.296875 8.25l0 0.34375zm-3.734375 -0.421875q0 -3.703125 -1.578125 -5.828125q-1.5625 -2.140625 -4.3125 -2.140625q-3.390625 0 -5.078125 3.0l0 10.4375q1.671875 2.984375 5.125 2.984375q2.6875 0 4.265625 -2.125q1.578125 -2.140625 1.578125 -6.328125zm7.4990234 -0.03125q0 -3.203125 1.25 -5.765625q1.265625 -2.5625 3.515625 -3.953125q2.25 -1.390625 5.140625 -1.390625q4.453125 0 7.203125 3.09375q2.765625 3.078125 2.765625 8.203125l0 0.265625q0 3.1875 -1.234375 5.71875q-1.21875 2.53125 -3.484375 3.953125q-2.265625 1.40625 -5.21875 1.40625q-4.4375 0 -7.1875 -3.078125q-2.75 -3.09375 -2.75 -8.1875l0 -0.265625zm3.75 0.453125q0 3.625 1.671875 5.828125q1.6875 2.203125 4.515625 2.203125q2.84375 0 4.515625 -2.234375q1.6875 -2.234375 1.6875 -6.25q0 -3.59375 -1.71875 -5.8125q-1.703125 -2.234375 -4.515625 -2.234375q-2.765625 0 -4.46875 2.203125q-1.6875 2.203125 -1.6875 6.296875zm24.851196 10.671875l-3.734375 0l0 -21.828125l3.734375 0l0 21.828125zm-4.03125 -27.625q0 -0.90625 0.546875 -1.53125q0.5625 -0.625 1.65625 -0.625q1.09375 0 1.65625 0.625q0.5625 0.625 0.5625 1.53125q0 0.90625 -0.5625 1.515625q-0.5625 0.609375 -1.65625 0.609375q-1.09375 0 -1.65625 -0.609375q-0.546875 -0.609375 -0.546875 -1.515625zm13.544983 5.796875l0.125 2.734375q2.5 -3.140625 6.53125 -3.140625q6.921875 0 6.984375 7.8125l0 14.421875l-3.734375 0l0 -14.453125q-0.015625 -2.359375 -1.078125 -3.484375q-1.0625 -1.125 -3.296875 -1.125q-1.828125 0 -3.203125 0.96875q-1.359375 0.96875 -2.125 2.53125l0 15.5625l-3.734375 0l0 -21.828125l3.53125 0zm24.33435 -5.296875l0 5.296875l4.078125 0l0 2.875l-4.078125 0l0 13.546875q0 1.3125 0.546875 1.96875q0.546875 0.65625 1.859375 0.65625q0.640625 0 1.765625 -0.25l0 3.03125q-1.46875 0.40625 -2.859375 0.40625q-2.5 0 -3.78125 -1.515625q-1.265625 -1.515625 -1.265625 -4.296875l0 -13.546875l-3.96875 0l0 -2.875l3.96875 0l0 -5.296875l3.734375 0zm21.14087 21.328125q0 -1.515625 -1.140625 -2.34375q-1.125 -0.84375 -3.96875 -1.4375q-2.828125 -0.609375 -4.5 -1.453125q-1.65625 -0.859375 -2.46875 -2.03125q-0.796875 -1.171875 -0.796875 -2.78125q0 -2.6875 2.265625 -4.53125q2.28125 -1.859375 5.8125 -1.859375q3.71875 0 6.015625 1.921875q2.3125 1.90625 2.3125 4.890625l-3.75 0q0 -1.53125 -1.296875 -2.640625q-1.296875 -1.109375 -3.28125 -1.109375q-2.03125 0 -3.1875 0.890625q-1.15625 0.890625 -1.15625 2.3125q0 1.359375 1.0625 2.046875q1.078125 0.6875 3.875 1.3125q2.796875 0.625 4.53125 1.5q1.734375 0.859375 2.5625 2.078125q0.84375 1.21875 0.84375 2.984375q0 2.921875 -2.34375 4.6875q-2.328125 1.765625 -6.0625 1.765625q-2.625 0 -4.640625 -0.921875q-2.015625 -0.9375 -3.15625 -2.59375q-1.140625 -1.671875 -1.140625 -3.609375l3.734375 0q0.09375 1.875 1.5 2.984375q1.40625 1.09375 3.703125 1.09375q2.109375 0 3.390625 -0.859375q1.28125 -0.859375 1.28125 -2.296875z" fill-rule="nonzero"/><path fill="#ffffff" d="m176.66489 397.21542l-12.3125 0l-2.765625 7.671875l-4.0 0l11.21875 -29.375l3.390625 0l11.25 29.375l-3.984375 0l-2.796875 -7.671875zm-11.140625 -3.1875l9.984375 0l-5.0 -13.734375l-4.984375 13.734375zm24.819519 -10.96875l0.125 2.734375q2.5 -3.140625 6.53125 -3.140625q6.921875 0 6.984375 7.8125l0 14.421875l-3.734375 0l0 -14.453125q-0.015625 -2.359375 -1.078125 -3.484375q-1.0625 -1.125 -3.296875 -1.125q-1.828125 0 -3.203125 0.96875q-1.359375 0.96875 -2.125 2.53125l0 15.5625l-3.734375 0l0 -21.828125l3.53125 0zm26.41249 16.359375l5.078125 -16.359375l4.0 0l-8.78125 25.203125q-2.03125 5.4375 -6.46875 5.4375l-0.703125 -0.046875l-1.40625 -0.265625l0 -3.03125l1.015625 0.078125q1.890625 0 2.953125 -0.765625q1.0625 -0.765625 1.75 -2.796875l0.828125 -2.21875l-7.796875 -21.59375l4.078125 0l5.453125 16.359375zm41.0822 -5.203125q0 4.984375 -2.28125 8.03125q-2.28125 3.046875 -6.171875 3.046875q-3.96875 0 -6.25 -2.53125l0 10.515625l-3.734375 0l0 -30.21875l3.40625 0l0.1875 2.421875q2.28125 -2.828125 6.328125 -2.828125q3.9375 0 6.21875 2.96875q2.296875 2.953125 2.296875 8.25l0 0.34375zm-3.734375 -0.421875q0 -3.703125 -1.578125 -5.828125q-1.5625 -2.140625 -4.3125 -2.140625q-3.390625 0 -5.078125 3.0l0 10.4375q1.671875 2.984375 5.125 2.984375q2.6875 0 4.265625 -2.125q1.578125 -2.140625 1.578125 -6.328125zm12.530304 11.09375l-3.734375 0l0 -31.0l3.734375 0l0 31.0zm19.466827 0q-0.328125 -0.640625 -0.53125 -2.296875q-2.609375 2.703125 -6.21875 2.703125q-3.21875 0 -5.296875 -1.828125q-2.0625 -1.828125 -2.0625 -4.625q0 -3.421875 2.59375 -5.296875q2.59375 -1.890625 7.296875 -1.890625l3.625 0l0 -1.71875q0 -1.953125 -1.171875 -3.109375q-1.171875 -1.171875 -3.453125 -1.171875q-2.0 0 -3.359375 1.015625q-1.34375 1.0 -1.34375 2.4375l-3.75 0q0 -1.640625 1.15625 -3.15625q1.171875 -1.53125 3.15625 -2.40625q1.984375 -0.890625 4.375 -0.890625q3.765625 0 5.90625 1.890625q2.140625 1.875 2.21875 5.1875l0 10.046875q0 3.015625 0.765625 4.78125l0 0.328125l-3.90625 0zm-6.203125 -2.84375q1.75 0 3.328125 -0.90625q1.578125 -0.90625 2.28125 -2.359375l0 -4.484375l-2.921875 0q-6.859375 0 -6.859375 4.015625q0 1.75 1.171875 2.75q1.171875 0.984375 3.0 0.984375zm22.036896 -2.625l5.078125 -16.359375l4.0 0l-8.78125 25.203125q-2.03125 5.4375 -6.46875 5.4375l-0.703125 -0.046875l-1.40625 -0.265625l0 -3.03125l1.015625 0.078125q1.890625 0 2.953125 -0.765625q1.0625 -0.765625 1.75 -2.796875l0.828125 -2.21875l-7.796875 -21.59375l4.078125 0l5.453125 16.359375zm21.213684 5.875q-4.4375 0 -7.234375 -2.90625q-2.78125 -2.921875 -2.78125 -7.8125l0 -0.6875q0 -3.25 1.234375 -5.796875q1.25 -2.5625 3.46875 -4.0q2.234375 -1.4375 4.84375 -1.4375q4.25 0 6.609375 2.8125q2.375 2.796875 2.375 8.015625l0 1.5625l-14.796875 0q0.078125 3.21875 1.875 5.21875q1.8125 1.984375 4.609375 1.984375q1.96875 0 3.34375 -0.8125q1.375 -0.8125 2.40625 -2.140625l2.28125 1.78125q-2.75 4.21875 -8.234375 4.21875zm-0.46875 -19.578125q-2.265625 0 -3.796875 1.65625q-1.53125 1.640625 -1.890625 4.59375l10.9375 0l0 -0.28125q-0.171875 -2.84375 -1.546875 -4.40625q-1.359375 -1.5625 -3.703125 -1.5625zm23.848145 0.6875q-0.84375 -0.140625 -1.828125 -0.140625q-3.671875 0 -4.984375 3.125l0 15.5l-3.734375 0l0 -21.828125l3.625 0l0.0625 2.515625q1.84375 -2.921875 5.203125 -2.921875q1.09375 0 1.65625 0.28125l0 3.46875zm17.184448 -3.34375l0.09375 2.421875q2.40625 -2.828125 6.484375 -2.828125q4.578125 0 6.234375 3.5q1.078125 -1.5625 2.828125 -2.53125q1.75 -0.96875 4.125 -0.96875q7.1875 0 7.3125 7.609375l0 14.625l-3.734375 0l0 -14.40625q0 -2.34375 -1.078125 -3.5q-1.0625 -1.15625 -3.59375 -1.15625q-2.078125 0 -3.453125 1.234375q-1.359375 1.234375 -1.578125 3.34375l0 14.484375l-3.765625 0l0 -14.3125q0 -4.75 -4.65625 -4.75q-3.671875 0 -5.03125 3.125l0 15.9375l-3.71875 0l0 -21.828125l3.53125 0zm31.722656 10.703125q0 -3.203125 1.25 -5.765625q1.265625 -2.5625 3.515625 -3.953125q2.25 -1.390625 5.140625 -1.390625q4.453125 0 7.203125 3.09375q2.765625 3.078125 2.765625 8.203125l0 0.265625q0 3.1875 -1.234375 5.71875q-1.21875 2.53125 -3.484375 3.953125q-2.265625 1.40625 -5.21875 1.40625q-4.4375 0 -7.1875 -3.078125q-2.75 -3.09375 -2.75 -8.1875l0 -0.265625zm3.75 0.453125q0 3.625 1.671875 5.828125q1.6875 2.203125 4.515625 2.203125q2.84375 0 4.515625 -2.234375q1.6875 -2.234375 1.6875 -6.25q0 -3.59375 -1.71875 -5.8125q-1.703125 -2.234375 -4.515625 -2.234375q-2.765625 0 -4.46875 2.203125q-1.6875 2.203125 -1.6875 6.296875zm27.704742 5.609375l5.40625 -16.765625l3.8125 0l-7.828125 21.828125l-2.84375 0l-7.90625 -21.828125l3.8125 0l5.546875 16.765625zm21.615295 5.46875q-4.4375 0 -7.234375 -2.90625q-2.78125 -2.921875 -2.78125 -7.8125l0 -0.6875q0 -3.25 1.234375 -5.796875q1.25 -2.5625 3.46875 -4.0q2.234375 -1.4375 4.84375 -1.4375q4.25 0 6.609375 2.8125q2.375 2.796875 2.375 8.015625l0 1.5625l-14.796875 0q0.078125 3.21875 1.875 5.21875q1.8125 1.984375 4.609375 1.984375q1.96875 0 3.34375 -0.8125q1.375 -0.8125 2.40625 -2.140625l2.28125 1.78125q-2.75 4.21875 -8.234375 4.21875zm-0.46875 -19.578125q-2.265625 0 -3.796875 1.65625q-1.53125 1.640625 -1.890625 4.59375l10.9375 0l0 -0.28125q-0.171875 -2.84375 -1.546875 -4.40625q-1.359375 -1.5625 -3.703125 -1.5625zm28.59491 -7.953125l0 5.296875l4.078125 0l0 2.875l-4.078125 0l0 13.546875q0 1.3125 0.546875 1.96875q0.546875 0.65625 1.859375 0.65625q0.640625 0 1.765625 -0.25l0 3.03125q-1.46875 0.40625 -2.859375 0.40625q-2.5 0 -3.78125 -1.515625q-1.265625 -1.515625 -1.265625 -4.296875l0 -13.546875l-3.96875 0l0 -2.875l3.96875 0l0 -5.296875l3.734375 0zm7.0497437 16.0q0 -3.203125 1.25 -5.765625q1.265625 -2.5625 3.515625 -3.953125q2.25 -1.390625 5.140625 -1.390625q4.453125 0 7.203125 3.09375q2.765625 3.078125 2.765625 8.203125l0 0.265625q0 3.1875 -1.234375 5.71875q-1.21875 2.53125 -3.484375 3.953125q-2.265625 1.40625 -5.21875 1.40625q-4.4375 0 -7.1875 -3.078125q-2.75 -3.09375 -2.75 -8.1875l0 -0.265625zm3.75 0.453125q0 3.625 1.671875 5.828125q1.6875 2.203125 4.515625 2.203125q2.84375 0 4.515625 -2.234375q1.6875 -2.234375 1.6875 -6.25q0 -3.59375 -1.71875 -5.8125q-1.703125 -2.234375 -4.515625 -2.234375q-2.765625 0 -4.46875 2.203125q-1.6875 2.203125 -1.6875 6.296875zm49.519867 0q0 5.0 -2.3125 8.046875q-2.296875 3.03125 -6.171875 3.03125q-4.125 0 -6.390625 -2.921875l-0.1875 2.515625l-3.421875 0l0 -31.0l3.734375 0l0 11.5625q2.25 -2.796875 6.21875 -2.796875q3.984375 0 6.25 3.015625q2.28125 3.0 2.28125 8.21875l0 0.328125zm-3.734375 -0.421875q0 -3.8125 -1.484375 -5.890625q-1.46875 -2.078125 -4.234375 -2.078125q-3.6875 0 -5.296875 3.421875l0 9.453125q1.71875 3.421875 5.34375 3.421875q2.6875 0 4.171875 -2.078125q1.5 -2.078125 1.5 -6.25zm17.499023 11.5q-4.4375 0 -7.234375 -2.90625q-2.78125 -2.921875 -2.78125 -7.8125l0 -0.6875q0 -3.25 1.234375 -5.796875q1.25 -2.5625 3.46875 -4.0q2.234375 -1.4375 4.84375 -1.4375q4.25 0 6.609375 2.8125q2.375 2.796875 2.375 8.015625l0 1.5625l-14.796875 0q0.078125 3.21875 1.875 5.21875q1.8125 1.984375 4.609375 1.984375q1.96875 0 3.34375 -0.8125q1.375 -0.8125 2.40625 -2.140625l2.28125 1.78125q-2.75 4.21875 -8.234375 4.21875zm-0.46875 -19.578125q-2.265625 0 -3.796875 1.65625q-1.53125 1.640625 -1.890625 4.59375l10.9375 0l0 -0.28125q-0.171875 -2.84375 -1.546875 -4.40625q-1.359375 -1.5625 -3.703125 -1.5625zm12.410645 8.078125q0 -5.109375 2.359375 -8.125q2.359375 -3.015625 6.25 -3.015625q4.0 0 6.25 2.828125l0.171875 -2.421875l3.40625 0l0 21.296875q0 4.25 -2.515625 6.6875q-2.5 2.4375 -6.734375 2.4375q-2.359375 0 -4.625 -1.015625q-2.265625 -1.0 -3.453125 -2.75l1.9375 -2.25q2.40625 2.96875 5.875 2.96875q2.71875 0 4.234375 -1.53125q1.53125 -1.53125 1.53125 -4.3125l0 -1.875q-2.234375 2.578125 -6.109375 2.578125q-3.84375 0 -6.21875 -3.078125q-2.359375 -3.09375 -2.359375 -8.421875zm3.75 0.421875q0 3.6875 1.515625 5.796875q1.515625 2.109375 4.234375 2.109375q3.53125 0 5.1875 -3.203125l0 -9.96875q-1.71875 -3.125 -5.140625 -3.125q-2.71875 0 -4.265625 2.125q-1.53125 2.109375 -1.53125 6.265625zm24.374023 10.671875l-3.734375 0l0 -21.828125l3.734375 0l0 21.828125zm-4.03125 -27.625q0 -0.90625 0.546875 -1.53125q0.5625 -0.625 1.65625 -0.625q1.09375 0 1.65625 0.625q0.5625 0.625 0.5625 1.53125q0 0.90625 -0.5625 1.515625q-0.5625 0.609375 -1.65625 0.609375q-1.09375 0 -1.65625 -0.609375q-0.546875 -0.609375 -0.546875 -1.515625zm13.544922 5.796875l0.125 2.734375q2.5 -3.140625 6.53125 -3.140625q6.921875 0 6.984375 7.8125l0 14.421875l-3.734375 0l0 -14.453125q-0.015625 -2.359375 -1.078125 -3.484375q-1.0625 -1.125 -3.296875 -1.125q-1.828125 0 -3.203125 0.96875q-1.359375 0.96875 -2.125 2.53125l0 15.5625l-3.734375 0l0 -21.828125l3.53125 0zm34.56555 -5.296875l0 5.296875l4.078125 0l0 2.875l-4.078125 0l0 13.546875q0 1.3125 0.546875 1.96875q0.546875 0.65625 1.859375 0.65625q0.640625 0 1.765625 -0.25l0 3.03125q-1.46875 0.40625 -2.859375 0.40625q-2.5 0 -3.78125 -1.515625q-1.265625 -1.515625 -1.265625 -4.296875l0 -13.546875l-3.96875 0l0 -2.875l3.96875 0l0 -5.296875l3.734375 0zm12.172119 7.9375q2.484375 -3.046875 6.453125 -3.046875q6.921875 0 6.984375 7.8125l0 14.421875l-3.734375 0l0 -14.453125q-0.015625 -2.359375 -1.078125 -3.484375q-1.0625 -1.125 -3.296875 -1.125q-1.828125 0 -3.203125 0.96875q-1.359375 0.96875 -2.125 2.53125l0 15.5625l-3.734375 0l0 -31.0l3.734375 0l0 11.8125zm28.09082 19.59375q-4.4375 0 -7.234375 -2.90625q-2.78125 -2.921875 -2.78125 -7.8125l0 -0.6875q0 -3.25 1.234375 -5.796875q1.25 -2.5625 3.46875 -4.0q2.234375 -1.4375 4.84375 -1.4375q4.25 0 6.609375 2.8125q2.375 2.796875 2.375 8.015625l0 1.5625l-14.796875 0q0.078125 3.21875 1.875 5.21875q1.8125 1.984375 4.609375 1.984375q1.96875 0 3.34375 -0.8125q1.375 -0.8125 2.40625 -2.140625l2.28125 1.78125q-2.75 4.21875 -8.234375 4.21875zm-0.46875 -19.578125q-2.265625 0 -3.796875 1.65625q-1.53125 1.640625 -1.890625 4.59375l10.9375 0l0 -0.28125q-0.171875 -2.84375 -1.546875 -4.40625q-1.359375 -1.5625 -3.703125 -1.5625zm22.641846 8.078125q0 -5.109375 2.359375 -8.125q2.359375 -3.015625 6.25 -3.015625q4.0 0 6.25 2.828125l0.171875 -2.421875l3.40625 0l0 21.296875q0 4.25 -2.515625 6.6875q-2.5 2.4375 -6.734375 2.4375q-2.359375 0 -4.625 -1.015625q-2.265625 -1.0 -3.453125 -2.75l1.9375 -2.25q2.40625 2.96875 5.875 2.96875q2.71875 0 4.234375 -1.53125q1.53125 -1.53125 1.53125 -4.3125l0 -1.875q-2.234375 2.578125 -6.109375 2.578125q-3.84375 0 -6.21875 -3.078125q-2.359375 -3.09375 -2.359375 -8.421875zm3.75 0.421875q0 3.6875 1.515625 5.796875q1.515625 2.109375 4.234375 2.109375q3.53125 0 5.1875 -3.203125l0 -9.96875q-1.71875 -3.125 -5.140625 -3.125q-2.71875 0 -4.265625 2.125q-1.53125 2.109375 -1.53125 6.265625zm33.811523 10.671875q-0.328125 -0.640625 -0.53125 -2.296875q-2.609375 2.703125 -6.21875 2.703125q-3.21875 0 -5.296875 -1.828125q-2.0625 -1.828125 -2.0625 -4.625q0 -3.421875 2.59375 -5.296875q2.59375 -1.890625 7.296875 -1.890625l3.625 0l0 -1.71875q0 -1.953125 -1.171875 -3.109375q-1.171875 -1.171875 -3.453125 -1.171875q-2.0 0 -3.359375 1.015625q-1.34375 1.0 -1.34375 2.4375l-3.75 0q0 -1.640625 1.15625 -3.15625q1.171875 -1.53125 3.15625 -2.40625q1.984375 -0.890625 4.375 -0.890625q3.765625 0 5.90625 1.890625q2.140625 1.875 2.21875 5.1875l0 10.046875q0 3.015625 0.765625 4.78125l0 0.328125l-3.90625 0zm-6.203125 -2.84375q1.75 0 3.328125 -0.90625q1.578125 -0.90625 2.28125 -2.359375l0 -4.484375l-2.921875 0q-6.859375 0 -6.859375 4.015625q0 1.75 1.171875 2.75q1.171875 0.984375 3.0 0.984375zm18.7146 -18.984375l0.09375 2.421875q2.40625 -2.828125 6.484375 -2.828125q4.578125 0 6.234375 3.5q1.078125 -1.5625 2.828125 -2.53125q1.75 -0.96875 4.125 -0.96875q7.1875 0 7.3125 7.609375l0 14.625l-3.734375 0l0 -14.40625q0 -2.34375 -1.078125 -3.5q-1.0625 -1.15625 -3.59375 -1.15625q-2.078125 0 -3.453125 1.234375q-1.359375 1.234375 -1.578125 3.34375l0 14.484375l-3.765625 0l0 -14.3125q0 -4.75 -4.65625 -4.75q-3.671875 0 -5.03125 3.125l0 15.9375l-3.71875 0l0 -21.828125l3.53125 0zm41.76953 22.234375q-4.4375 0 -7.234375 -2.90625q-2.78125 -2.921875 -2.78125 -7.8125l0 -0.6875q0 -3.25 1.234375 -5.796875q1.25 -2.5625 3.46875 -4.0q2.234375 -1.4375 4.84375 -1.4375q4.25 0 6.609375 2.8125q2.375 2.796875 2.375 8.015625l0 1.5625l-14.796875 0q0.078125 3.21875 1.875 5.21875q1.8125 1.984375 4.609375 1.984375q1.96875 0 3.34375 -0.8125q1.375 -0.8125 2.40625 -2.140625l2.28125 1.78125q-2.75 4.21875 -8.234375 4.21875zm-0.46875 -19.578125q-2.265625 0 -3.796875 1.65625q-1.53125 1.640625 -1.890625 4.59375l10.9375 0l0 -0.28125q-0.171875 -2.84375 -1.546875 -4.40625q-1.359375 -1.5625 -3.703125 -1.5625z" fill-rule="nonzero"/></g></svg>